<svg xmlns="http://www.w3.org/2000/svg" viewBox="0 0 180 113">
  <defs>
    <g id="flake" fill="none" stroke="#34597D" stroke-width="0.7" stroke-linecap="round" stroke-linejoin="round">
      <g id="flake-arm">
        <path d="m0 0v-7.6"/>
        <path d="m0-4.2-1.8-1.9m1.8 1.9 1.8-1.9"/>
        <path d="m0-6.5-1.1-1.3m1.1 1.3 1.1-1.3"/>
      </g>
      <use href="#flake-arm" transform="rotate(60)"/>
      <use href="#flake-arm" transform="rotate(120)"/>
      <use href="#flake-arm" transform="rotate(180)"/>
      <use href="#flake-arm" transform="rotate(240)"/>
      <use href="#flake-arm" transform="rotate(300)"/>
      <circle r="1.4" fill="#F2F8FC" stroke="#1F3A56" stroke-width="0.5"/>
    </g>
    <g id="medallion">
      <circle r="10.8" fill="#F2F8FC" stroke="#34597D" stroke-width="0.8"/>
      <circle r="8.9" fill="none" stroke="#A9CDE8" stroke-width="1.2"/>
      <use href="#flake" transform="scale(0.92)"/>
    </g>
    <path id="garland-h" d="M18 8.2 Q30 6.2 42 8.2 Q54 10.2 66 8.2 Q78 6.2 90 8.2 Q102 10.2 114 8.2 Q126 6.2 138 8.2 Q150 10.2 162 8.2" fill="none" stroke="#7BA7CC" stroke-width="0.9" stroke-linecap="round"/>
    <path id="garland-v" d="M8.2 18 Q6.2 30.8 8.2 43.7 Q10.2 56.5 8.2 69.3 Q6.2 82.2 8.2 95" fill="none" stroke="#7BA7CC" stroke-width="0.9" stroke-linecap="round"/>
    <g id="corner-dust">
      <circle cx="24.3" cy="24.3" r="1.1" fill="#7BA7CC"/>
      <circle cx="27.6" cy="22.2" r="0.7" fill="#A9CDE8"/>
      <circle cx="22.2" cy="27.6" r="0.7" fill="#A9CDE8"/>
    </g>
  </defs>
  <rect width="180" height="113" fill="#F2F8FC"/>
  <rect x="4.5" y="4.5" width="171" height="104" rx="10" fill="none" stroke="#A9CDE8" stroke-width="4"/>
  <rect x="2.5" y="2.5" width="175" height="108" rx="12" fill="none" stroke="#34597D" stroke-width="0.8"/>
  <rect x="6.5" y="6.5" width="167" height="100" rx="8" fill="none" stroke="#34597D" stroke-width="0.8"/>
  <rect x="10" y="10" width="160" height="93" rx="5" fill="none" stroke="#7BA7CC" stroke-width="1.2"/>
  <use href="#garland-h"/>
  <use href="#garland-h" transform="translate(0 113) scale(1 -1)"/>
  <use href="#garland-v"/>
  <use href="#garland-v" transform="translate(180 0) scale(-1 1)"/>
  <use href="#medallion" transform="translate(16 16)"/>
  <use href="#medallion" transform="translate(164 16)"/>
  <use href="#medallion" transform="translate(16 97)"/>
  <use href="#medallion" transform="translate(164 97)"/>
  <use href="#corner-dust"/>
  <use href="#corner-dust" transform="translate(180 0) scale(-1 1)"/>
  <use href="#corner-dust" transform="translate(0 113) scale(1 -1)"/>
  <use href="#corner-dust" transform="translate(180 113) scale(-1 -1)"/>
</svg>
