<svg xmlns="http://www.w3.org/2000/svg" viewBox="0 0 147.4 211">
<!-- SVG created with Arrow, by QuiverAI (https://quiver.ai) -->
  <style type="text/css">.cls-0 {fill:#F2F8FC;stroke:#1F3A56;stroke-width:0.75;stroke-linecap:round;stroke-linejoin:round;stroke-miterlimit:10;}
.cls-1 {fill:#7BA7CC;stroke:#1F3A56;stroke-width:0.5;stroke-linecap:round;stroke-linejoin:round;stroke-miterlimit:10;}
.cls-2 {fill:#A9CDE8;stroke:#34597D;stroke-width:0.25;stroke-linecap:round;stroke-linejoin:round;stroke-miterlimit:10;}</style>
  <path d="m132.1 22.8c-4.9-0.2-4.4 4.2-7.6 6.2-6.9 4-15.2-4.6-12.8-9.5 1.2-2.5 3.7-3.5 5.4-3.1 2.1 0.5 1.9 3.2 0.8 3.5-0.7-1.6-2.3-1-4 0.6-0.6 3.1 2.1 6.2 6.1 5.1 2.6-0.6 3.9-2.7 4.6-3.9 3.5-6.5-2.2-16.7-10.7-16.9-4-0.5-9.8 0.7-13.5 3.2-1.3 0.8-2.9-0.7-1.7-1.8 2.4-2.3 7.8-3.8 12.2-3.6 9.9-0.2 16.3 8.8 12.7 15.9v0c-1.4 2.8-5.1 4.4-6.1 1.6-0.4-0.9-1.3-0.3-1.3 1 0 2.5 4.2 5.2 7.4-0.4 2.6-5.6-1.2-14.3-11.1-14.3-3.7 0-7.4 1.2-10 3-2.9 1.4-5.9 2.7-8.4 1.7-1.7-0.6-3.6-2.7 0-5.3 1.5-1 1-2.3-1.4-2.5-1.7-0.1-4 0.1-8.9 0.3h-19.7c-5 0-8.2-0.3-9.9-0.1-2.1 0-2.6 1.4-1.3 2.3 3.7 2.6 2.2 4.7 0.4 5.3-4 1.3-7.9-2.1-12.8-3.1-6.4-1.6-10.7 1.7-12.4 5.1-3 4.7 0 7.8 1.8 7 0.7-0.3 0.5-1.4 1.3-1 1.4 1.2-0.8 4.7-4.7 2.8-5.6-3.4-2.1-10.7 0.4-12.8 4.6-4.1 13-6.3 19.8-1.5 2.2 2 3.7-0.2 1.7-1.7-2.3-1.8-5.8-2.9-10.2-2.9-9.1-0.2-14.8 5.6-14.8 12 0 2.1 0.2 4.1 1.2 5.5 3.4 4.9 9 3.9 9 0.6 0-1.8-1.5-2-1.7-1.1-0.8 3-5.5 1.9-3.4-2.8 2.6-3.8 8.5-0.8 7.9 4.7-0.5 5.1-7.8 10.5-12 7-3-1.9-2.8-6-6.8-6.1-8.2-0.2-12.2 7.8-10.2 13.7 1 2.9 2.7 4.9 5.2 5.4 2.3 0 2.8 1 2.3 1-2.5 1-6-1.3-7.3-6-1.4-7.3 4-13.8 10.5-14 3.6 0.1 3.5 2.9 5 4.5-2.5-0.5-6.7 1.5-6.2 6.1 0.5 2.9 2.6 6.6 2.2 10-0.5 3.1-2.1 6.1-4.9 4-1.3-0.9-2.2-2.4-3.8-2.4-2 0.1-2.3 2-2.3 6.1v108c0 3.7 0.1 7.4 2.9 7.4 1.9-0.1 3.2-2.5 4.6-2.6 2-0.4 3 2.2 3.3 4.5 0.5 3.4-1.8 7-2 9.5 0 3.4 2.5 5.1 5.7 4.6-0.9 1-1.5 3.3-2.7 4.4-3 1.6-9.3-0.5-10.5-6.1-1.5-5.8 1.6-10 4.2-10 2.3-0.3 2-1.5 0.6-1.5-3.7 0-6.6 4.7-6.1 9.2 0.5 6.6 6.8 10.5 11.3 9.9 3.7-0.6 3-4 6-6 6.3-3.5 13.1 3.4 11.2 8.6-1.5 4.3-7.2 4.8-7.5 1 0-2 1.3-2.2 1.8-0.9s3.3 0.4 3-2.3c-0.8-4.3-7.5-4.3-10 1.1-2.3 6.2 2.2 16.1 13 17 4.1 0 8.6-0.6 11.6-2.9 1.9-1.4-0.1-3.7-1.5-2.1-2.1 1.5-5 3.4-9.9 3.4-6.7 0-13.2-4.9-12.6-12.8 0.6-5 5.1-6.2 7.1-5 1.5 0.9 1.8 3.9 0 3-0.4-2.6-4.9-2.5-3.5 3 2 3.6 5.4 7.3 10.3 7 5.1-0.2 8.8-3.5 13.3-4 3.2-0.2 5.4 2 2.7 4.5-2.4 1.6-2.8 3.5 0 4 2 0.1 5.8-0.1 10.7-0.2h19.1c4.5 0 8.7 0.5 9.7 0.1 1.7 0 1.8-1.5 0.7-2.3-3.7-2.5-3.1-6.2 1.5-6.2 3.3 0 7.8 3 11.8 4 4.7 1.1 9.2-1.1 11.7-5 3.4-4.6-0.7-7.4-1.4-4.6-1.6 1.3-3.1-1.8-1.2-3.3 2.9-2 7.1 0.8 7.1 5.3 0 5.7-4.2 11.7-12.7 12.2-3.9-0.1-6.8-0.7-9.8-3-2.6-2.1-3.7 0.8-1.6 1.9 2.9 2.2 8.2 2.9 10.9 2.9 9.5 0 13.5-6.5 14-12 1-8.4-7.7-11.4-9.8-7-1.2 4 2.9 5.2 3.1 3 1.5-1.5 1.3 2.1 0.3 3.1-1.6 1.5-6.4-0.1-6.9-4.1-0.7-6.3 7.1-10.9 11-9.4 4.5 1.1 4 5.4 6.6 7.4 2.7 1.5 9.3 0.5 10.9-6.3 1.8-6.7-2.5-12.5-6-12.5-1.5 0-1.5 1.3 0.3 1.5 4.1 0.4 6.1 7.3 3 12.4-2 3.4-6.2 5-8.2 4-1.1-0.5-1.7-2.5-3.1-4.3 3 0.7 5.5-1.3 5.5-4.3 0-2-2.5-5.9-2.5-9.5 0-3.9 2.3-6.4 4.3-4.8 1.2 0.5 2 2.4 4 2.5 2.2 0 2.5-2.1 2.5-7.6v-107.5c0-3.9-0.3-6.6-2.3-6.5-2.2 0-3 2.9-5.2 2.9-1.9 0-3.5-2.9-3.4-5.9 0.1-3.1 1.9-6.1 2.1-8.9 0-2.5-1.9-5-5.5-4.6 1.5-1.6 1.8-4.6 4.4-4.4 4.5-0.1 9.4 4.4 8.6 10.8-0.7 3.6-2 5.5-4.5 5.7-2 0.4-2.1 2.3 0.8 1.8 2.6-0.8 4.7-3.3 5.1-7.3 0.2-5.7-3.4-11.6-7.9-12.3z" fill="#7BA7CC" stroke="#1F3A56" stroke-linecap="round" stroke-linejoin="round" stroke-miterlimit="10" stroke-width=".75"/>
  <path d="m137.9 47.6c-1.5-0.5-2.4 2.4-5.8 2-2.6-0.5-5.2-5.1-4-10 0.8-3.1 2.8-6.6 0.9-8.6-2.4-2.9-5 0.9-10.5 0-4.6-0.6-10.9-7.6-8-12.4 1.9-3 4.2-3.2 5.4-3.5-2.3-3.6-6.8-4-12.5-1.5-3 1.3-6.8 3.4-10.3 2-2.6-1-4.2-3.5-1.7-6.6l0.5-0.6h-18-17.7l0.5 0.6c2.5 3.1 0.4 5.6-2.1 6.6-3.2 1.3-6.6-0.6-10.2-2-5.5-2.5-9.3-2.5-12.3 0l-0.5 0.8c1.3 0 5.5 2.2 5.9 6.2 0.5 6.3-5.4 11.3-10.9 10.8-3.1 0-5.4-2.3-7.2-1.4-2.4 0.6-2.3 3.1-1.5 5.4 0.7 2.6 2.2 5.7 1.6 9.1-0.4 2.9-2.1 5.6-4.4 5.5-2.7 0-3.6-2.1-4.6-2.1s-1 1.1-1 4v107.3c0 5 1 5.3 2.5 3.9 1.9-1.5 4.6-2.5 6.5 0.3 2.7 3.7 1.6 8.2 0 12.8-1.1 2.4 0.1 5.9 4.6 4.7 2.4-1 4.5-1.9 7.5-1 4.3 1.2 8.3 5.6 6.9 11.1-1.4 3.5-4.1 4.6-6.1 4.6 1.1 2.3 5 4.9 10.7 2.9 4.8-1.6 9.3-4.9 13.3-2.6 3.2 2 2 4.6 0.7 6.2-0.4 0.5 0 0.8 1.3 0.8 2.2 0 7.1-0.2 16.5-0.2 10 0 15.2 0.3 17.2 0.2 1.3 0 1.3-0.3 0.8-0.8-1.3-1.6-2.5-4.2 0.7-6.2 3.9-2.3 8.3 0.2 12.9 2.1s8.5 1.6 11.4-1.4l0.5-0.7c-2-0.3-5.3-1.8-5.8-5.9-0.5-5.4 5.1-10.9 10.8-10.1 2.7 0 4.6 2.5 7.2 1.5 1.8-0.3 2-2.8 1.5-4.3-1.2-3.5-3.6-9-1.6-12.6 2.1-4.1 4.9-3 7-1 1.6 1.6 1.6 0.1 1.6-3.9v-108.1c0-2.6 0-3.4-0.2-3.9z" fill="#F2F8FC" stroke="#1F3A56" stroke-miterlimit="10" stroke-width=".75"/>
  <defs>
    <g id="flake" fill="none" stroke="#34597D" stroke-width="0.7" stroke-linecap="round" stroke-linejoin="round">
      <g id="flake-arm">
        <path d="m0 0v-7.6"/>
        <path d="m0-4.2-1.8-1.9m1.8 1.9 1.8-1.9"/>
        <path d="m0-6.5-1.1-1.3m1.1 1.3 1.1-1.3"/>
      </g>
      <use href="#flake-arm" transform="rotate(60)"/>
      <use href="#flake-arm" transform="rotate(120)"/>
      <use href="#flake-arm" transform="rotate(180)"/>
      <use href="#flake-arm" transform="rotate(240)"/>
      <use href="#flake-arm" transform="rotate(300)"/>
      <circle r="1.4" fill="#F2F8FC" stroke="#1F3A56" stroke-width="0.5"/>
    </g>
    <g id="flake-small" fill="none" stroke="#7BA7CC" stroke-width="0.55" stroke-linecap="round">
      <path d="m0-3.4v6.8m-2.9-5.1 5.8 3.4m0-3.4-5.8 3.4"/>
      <circle r="0.7" fill="#A9CDE8" stroke="#34597D" stroke-width="0.35"/>
    </g>
  </defs>
  <use href="#flake" transform="translate(135.5 10.5)"/>
  <use href="#flake-small" transform="translate(126 17) rotate(15)"/>
  <use href="#flake" transform="translate(11 10.5) rotate(15)"/>
  <use href="#flake-small" transform="translate(20.5 17) rotate(-10)"/>
  <use href="#flake" transform="translate(135 199.5) rotate(10)"/>
  <use href="#flake-small" transform="translate(126 193.5) rotate(20)"/>
  <use href="#flake" transform="translate(11.5 199.5) rotate(-12)"/>
  <use href="#flake-small" transform="translate(21 193.5) rotate(8)"/>
</svg>