<svg xmlns="http://www.w3.org/2000/svg" viewBox="0 0 150 218">
<!-- SVG created with Arrow, by QuiverAI (https://quiver.ai) -->
  <style type="text/css">.cls-0 {fill:#FDF3DE;}
.cls-2 {fill:#9F7931;stroke:#6D511B;stroke-width:0.3473;}
.cls-3 {fill:#D4A53F;stroke:#6A4A1E;stroke-width:0.25;}
.cls-4 {fill:none;stroke:#6A4A1E;stroke-width:0.1737;}
.cls-5 {fill:none;stroke:#6A4A1E;stroke-width:0.1284;}</style>
  <rect class="cls-0" x="1.1" y="-.2" width="144.8" height="214.9"/>
  <path class="cls-2" d="m128.9 20.5c0.3-5.4-2.8-11.1-8.3-11.1h-95.5c-5.6 0-8.5 4.4-7.6 14.2-2.7-2.3-8.5-2.2-8.5 4.3v160.1c0 5.5 5.2 7.2 8.1 4.8-0.8 6 2.4 10.7 7.1 10.7h22.5l0.7 1.9h-22.6c-4.3 0-8.2-2.9-8.5-9.5-3.8 0.9-8.3-1.2-8.4-7.3l0.7-160.2c0-5.8 3.9-8.1 7.7-7.9 0.2-5.8 2.9-11.1 8.8-11.1h92.7c6.4 0 9.7 0.8 9.7 9l1.4 2.1z"/>
  <path class="cls-2" d="m127 23.6c3.6-2.8 6.9-1.9 6.9 4.2v160.2c0 5.1-4.7 7.4-9.1 4.8 0.7 6.4-1.9 10.7-6.9 10.7l-24.2-0.4-1.9 2h26.6c4.1 0 8.2-3 8.4-9.3 4 1 9-0.9 9-7.4l0.1-160c0-4.8-3.5-8.9-8.1-7.6l-0.8 2.8z"/>
  <path class="cls-2" d="m121.7 9.4c4.2 0 6 3.7 5.8 5.4l-0.2 4.9c0-4.5-2-8.2-6.1-8.2h-31.6l3.8-2.1h28.3z"/>
  <path class="cls-2" d="m122.5 34.7 7.5-0.1v3.4h-7.4l-0.1-3.3z"/>
  <path class="cls-2" d="m122.6 38h7.7l-0.4 0.4h-7.3v-0.4z"/>
  <path class="cls-2" d="m122.6 34.1c-5.1 0-8.8-2.7-11.6-7.4l-4.4-1.3c3.2 2 6 9.3 14.4 9.3h1.6v-0.6z"/>
  <path class="cls-2" d="m22.9 34.7-9.1-0.1 0.1 3.4h8.7l0.3-3.3z"/>
  <path class="cls-2" d="m22.6 34.1c-2.7 0.1 0.6 3.8-7.3 3.8h-1.3l-0.1 0.5h8.7v-4.3z"/>
  <path class="cls-2" d="m22.6 34.7c4.3-0.2 8.8-2.5 12.8-9.3l-2 1c-2.8 4.4-6.5 7.4-10.8 7.5v0.8z"/>
  <path class="cls-2" d="m122.6 205.1c3.1 0 5.3-3.3 5.2-4.5l-0.7-2.4c-0.5 3.3-3.1 5-5.9 5h-28.6l1.2 1.8 28.8 0.1z"/>
  <path class="cls-2" d="m114.8 13.9c-4.7-1-11.9 0.1-10.7 6.5 1.2 4.2 4.6 6 7.3 6 7.3 0 8.2-6.5 4.8-4.8-0.9 0.3-4-3.6 2.8-1.7 0.6-0.9 0.9-4.7-4.2-6zm-5.9 10.2c-2.8-0.9-6.5-9.5 1.7-9.5 6.2-0.2 8 5.3 3.8 6.6l-5.5 2.9z"/>
  <path class="cls-2" d="m29.6 13.9c-7.4 0.3-7.2 7.2-2.7 7.7 1.7 0.1 1.2 2.8 4.6 4.3 4.5 0.8 8.6-2.7 7.6-7.9-0.5-3-3.5-4.6-9.5-4.1zm4.3 10.2c-5.3 1.6-9.1-3-7.7-7.1 1.7-3.4 11.9-3.8 11.4 2.7l-3.7 4.4z"/>
  <path class="cls-2" d="m39.2 17.4c1.2-1.5 3-2.7 5.9-3-5.5-0.4-6.5 2.2-6.5 2.2l0.6 0.8z"/>
  <path class="cls-2" d="m38.7 16.7c-0.8-1.5-0.8-3.6 0.9-3.6l16.8-0.2h-16.3c-2.9 0-2.2 2.5-1.4 3.8z"/>
  <path class="cls-2" d="m102.4 14.1c1 0.3 1 1.8 0.1 2.5-1.4-1.4-3.1-2-5.6-2.2l5.5-0.3z"/>
  <path class="cls-2" d="m102.5 13-1.4 0.1 1.1 0.1c1.9 0 1.3 2.9 0.6 3.4l0.3 0.4c1-0.9 1.5-4-0.6-4z"/>
  <path class="cls-2" d="m13.2 37.8 1.3 0.1-0.3 0.5c-0.7 0-0.2 3.2-0.3 7.7l-0.7 0.8v-9.1z"/>
  <path class="cls-2" d="m13.2 170.6v7.2l7.7-0.2-0.1-1.2h-3.7c-3.5-0.2-2.6-2.5-2.6-5.5l-1.3-0.3z"/>
  <path class="cls-2" d="m122.6 181.1h7.3l-0.1-0.5-7.2-0.2v0.7z"/>
  <path class="cls-2" d="m122.6 177.9h7.7l-0.4-0.5h-7.3v0.5z"/>
  <path class="cls-2" d="m130.3 37.8c3.1 0 2.8-3.1 1.2-3.1 2.9-1.1 3.1 2.7-1.3 2.7l0.1 0.4z"/>
  <path class="cls-2" d="m14.5 37.8c-3.1 0-3.4-3.1-1.6-3.1-2.8-1.1-3.8 2.7 1.6 3.1z"/>
  <path class="cls-2" d="m13.2 177.8c-3.1 0-3.7 2.8-1.1 2.8-1.2-1.8 1.5-2.2 2.4-2l-1.3-0.8z"/>
  <path class="cls-2" d="m130.3 177.4c3.1 0 2.9 2 0.3 1.7 3 2.7 5.5 0.3 1.5-1.5l-1.8-0.2z"/>
  <path class="cls-2" d="m122.6 203.1-31.2 0.1 0.5 0.7 29.3-0.1 1.4-0.7z"/>
  <path class="cls-2" d="m130.3 38c0.8 0 0.1 3.1 0 3.1 0.5 0-0.9-2.3-2.2-2.2l-1.1-0.9h3.3z"/>
  <path class="cls-2" d="m130.3 177.9c0.7 0 0.3 1.5 0 2.5h-3.3l1.2-0.5c1.3 0.1 2.6-1.5 1.7-2h0.4z"/>
  <path class="cls-2" d="m13.9 177.9c-0.9 0 0.1 1.5 0.3 2.5h3.4l-1.2-0.5c-1.3 0.1-2.5-1.5-2.2-2h-0.3z"/>
  <path class="cls-2" d="m11.9 57.6c-0.4 2.5-2 5.5-2.7 5.3l0.3 2.2c1-1 3.4-6.2 4-7.7l-1.6 0.2z"/>
  <path class="cls-2" d="m21.1 34.1-0.2 5.5 1.5-1 0.2-4.5h-1.5z"/>
  <path class="cls-2" d="m122.1 188.4 0.3 1.2c0 1.3 2 3 1.6 0.5 0.2-1.1 1.5-0.2 1.3 1 2.8 1.1 4.5-2.7 4.3-4.2-0.2-2-1.8-4.5-4.8-4.5-4.4-0.2-7.8 0.7-13.8 7.5l-1.8-0.3c2.8-2.7 5.2-8.4 11.8-8.5h1.9l1.3-0.2v-146.3h-1.6v-0.5l2.2-1.1 0.1 148.4c3 1 3.2 5-2.8 7z"/>
  <path class="cls-2" d="m107.4 126.4c3 4.2 5.4 11 3.4 19.8-2.9 6.9-5.5 13.7-6.2 22.6l2 0.8c0.5-7.7 2.9-13.4 7-20 6.2-9.7 16.3-25.5 16-36.2l-2.6 10.5-15 22.3c1.9-6.6 0-14.1-4.1-20.1l-0.5 0.3z"/>
  <path class="cls-2" d="m97.4 164.1c1 2.3 1.6 4.5 1.3 6.5h1.4c0.4-2-0.2-4.2-1.4-6.6l-1.3 0.1z"/>
  <path class="cls-2" d="m94.2 172.9c1.9 0.3 2.7 3.7 2.4 6.2-0.2 5.8-4 13-6 15.6l1 2.1c4-4.4 7.5-12.1 8.5-20l-5.9-3.9z"/>
  <path class="cls-3" d="m103.6 56.4c1-6.5-2.7-17.8-5.7-16.5l-1 5.5c-2.5-2.8-10.3-9.3-11-4.8l1 7c-0.7 3.8 0.7 8.5 3.2 8.1-2.5 0.5-3 4.7-1.9 7.4-0.3 2.9-3.7 2-3.8 3.5-0.2 1.6 1.7 1.4 2.5 0 1-1.5 2.7-2.6 4-1.2 1.1 1 3.3 0.5 4 0.2 2.7-1 3.5-5 5.5-6.4-0.5 1.2-2.5 4.7-2.5 4.7l3.2-5c-0.6 2.5-1 4.7-1 4.7l1-3.2c-0.1 1.5-1 3-0.7 3.5 0.2 0.5 0.2 0 0.2-0.5-0.1-2 1.3-3.7 2.3-4.8l0.7-2.2z"/>
  <path class="cls-4" d="m90.9 55.7c2.5 0.2 4.2 0 4.2 0l-1.7-2.3 3.2 2.5 5 1c-1.7-1.2-6.7-4.5-8.7-4.3-2.3 0.5-4-2.2-6-2.5"/>
  <path class="cls-4" d="m86.9 43.6c3.5-0.5 6.7 1.8 7.7 3.1"/>
  <path class="cls-4" d="m86.9 46.6c2.5-0.5 7.2 2.3 8.5 3.3"/>
  <path class="cls-4" d="m87.2 46.6s2.3 0.3 4.2 1"/>
  <path class="cls-4" d="m87.2 47.1c2.7 0 5.4 2 7.4 3"/>
  <path class="cls-4" d="m87.2 49.1c2.3-0.5 5.2 1 6.7 1.5"/>
  <path class="cls-4" d="m87.4 49.7c3-0.8 5 1.2 6.5 0.7l7.5 6.7"/>
  <path class="cls-4" d="m94.4 46.9c1.2-1.5 5.2 3.2 8.1 9.7"/>
  <path class="cls-4" d="m96.9 44.1c2.5 1.3 5.1 6.5 5.5 9.3"/>
  <path class="cls-4" d="m96.9 43.1c1.5 1 4.2 3.6 4.2 5.3"/>
  <path class="cls-4" d="m96.9 42.4c1.8 1 4 3.7 4 5.2 0.5-1.5 1.3-0.9 1.5 0.3"/>
  <path class="cls-4" d="m88.4 58.9c0.7-2 4.7-1.5 6.7-1.8h4.8"/>
  <path class="cls-4" d="m88.1 59.9c0.3-0.7 2.5-1.5 4.8-1.5l4-0.3-4.3 1.5h-3.5l-0.9 1.3-0.1-1z"/>
  <path class="cls-4" d="m88.1 61.1 4.5-0.7 1-0.5c-1.7 2-0.2 1 0 1.7-1.7 0.3-2.1 2-3.2 1.8-0.9-0.2-0.3-1.8-2-1.5l-0.3-0.8z"/>
  <path class="cls-4" d="m89.1 64.4c1.3-1.5 2.8-3.5 4.5-2.8l6.3-3c-1.5 1.1-7.3 4.8-7 7-1.3-0.7-2.8 0-2.8 0"/>
  <path class="cls-3" d="m103.1 56.6c-2 0.3-2.6 3.3-0.6 2.3 0.6 0.5 2.9-2 1.9-3l-1.3 0.7z"/>
  <path class="cls-5" d="m103.6 55.4c1.3-1.5 3.3 0.5 0.8 1.5"/>
  <path class="cls-4" d="m103.9 55.7c1.7-1.8 2.2-6.6 0.7-6.3"/>
  <path class="cls-4" d="m104.6 55.6c1.5-0.2 3.8-4.7 0-6.2"/>
  <path class="cls-3" d="m103.6 55.9 0.8-0.2 0.2-0.1 0.8 0.3-0.8 0.5-1-0.5z"/>
  <path class="cls-2" d="m122.5 186.1-1.6 2.9 2.7-0.9-1.1-2z"/>
  <path class="cls-2" d="m124.9 188.4 2.2-2-0.7-1.5-1.5 3.5z"/>
  <path class="cls-3" d="m104.1 57.6 1.3 1.6 0.5-0.8-1.3-1.5-0.5 0.7z"/>
  <path class="cls-3" d="m104.4 58.1 1.7 1.6 1.3-0.8-2.3-1.5-0.7 0.7z"/>
  <path class="cls-2" d="m122.6 189.4h2l0.3-1-2.3 0.2v0.8z"/>
  <path class="cls-2" d="m125.1 189 1.8-0.6-0.5-1-1.3 1.6z"/>
  <path class="cls-3" d="m19.6 33.2c-5-2.6-3-8 0.3-8.8l2.7 1 0.5-1c1.5 1.5 1.3 2.3 0.5 3.2l2.4-1.2c0 1.7-0.9 3-2.4 2.7l2 0.5-1 1.8 0.3 1c-1 1.2-4 1.2-5.3 0.8z"/>
  <path class="cls-3" d="m21.1 32.4c-3.2-0.7-1.6-3.5 1.5-3 1.8 0.3 2 3.7-1.5 3z"/>
  <path class="cls-2" d="m19.6 41.4c-3.1 1-10.2 4.7-9 12.5l3 3 2-6.3c0.3-4 1.9-6.7 5.3-8.5l-1.3-0.7z"/>
  <path class="cls-3" d="m16.5 31.6 2.6 1.5c-1 1.5-2.2 1.5-3.7 1-1.3 0.3-1.2 3.8-1.4 3.5-0.8-0.7-0.8-1.5 0-2.2-0.4-2.3 0.9-3.8 2.5-3.8z"/>
  <path class="cls-3" d="m121.2 26.4-0.2 0.2c0.1 1.8 1.1 2.3 2.9 2.8l-2.2-0.5-3.1 0.5 2.5 0.2c-1.2 1.5 0 1.5 0.3 2.5-0.8 0.5-1.6 0.5-2 0.5 4 1.5 7.6 0 7-1.7l-0.9-3 0.6-3.5c-1.3-0.5-2.5 1-2.1 2l-0.8-2.5c-1.1 0.7-3.6 4 1.2 5.2l-3.2-2.7z"/>
  <path class="cls-3" d="m124 23.9c-1.9 2.5 2.9 3 2.4 5.7-0.4 1.5-2.3 3-3.3 2.1-1.5-2.1 1.4-3.3 2.4-2.1l-1.5-5.7z"/>
  <path class="cls-3" d="m126.4 24.4c3.7 1.3 3.1 6.7 0.2 7.5l-0.2-2.5-3-2 3-3z"/>
  <path class="cls-3" d="m124.9 32.9c1.5-0.3 2-1.3 2.7-1.3l-1.7 2-1-0.7z"/>
  <path class="cls-3" d="m124.9 32.9c1.5-0.3 2.6-1.5 3-2.3l1 1c0.5-0.7 1.5 0 0.5 0.5 1-0.2 1.6 0.5 0.5 0.8 1.5-0.5 1.1 0.7 0 0.7 0.7 0.5 0 1.1-0.7 0.8l-1.6-0.3-2.7-1.2z"/>
  <path class="cls-2" d="m128.9 33.9c1.9-0.5 0.5-0.8-0.3-1"/>
  <path class="cls-2" d="m129.9 33.6c1.2-0.7 0.5-1.2-0.3-1.2"/>
  <path class="cls-2" d="m129.9 32.9c1.5-0.3 1.5 0.7 0.7 1"/>
  <path class="cls-2" d="m130.6 33.6c0.9 0.3 0.8 1-0.2 1"/>
  <path class="cls-3" d="m18.5 175.1c-4-2.7-8.5-5.2-9.6-9.9l1.5-8.6 5.2 3.3 0.4 6.7c0.5 4.5 2.5 6.5 5.1 8.5h-2.6z"/>
  <path class="cls-2" d="m15.6 50.1c-1-0.5-5.1 1-2.1 6.8 1.4-0.3 1.4-3.5 2.6-4l-0.5-2.8z"/>
  <path class="cls-3" d="m13.4 58.2c-2.9-0.6-6.5-4.6-1.9-10.8l5.9-4.8c-1.9 1.5-2.3 4.1-1.3 7.1l-0.5 3.2c-3.1 1.2-1.4 3.5 0 4 0.4 2.2-0.2 1.7-2.2 1.3z"/>
  <path class="cls-2" d="m15.6 50.1c-3.5 1-6.1 4.6-1.5 8l1.5-8z"/>
  <path class="cls-4" d="m24.4 26.6c-4.3 0.3-6.3 3-4.5 5"/>
  <path class="cls-4" d="m24.4 27.9c-1.9 1.2-4.9-0.8-5.8 2.5"/>
  <path class="cls-4" d="m22.6 25.4c-0.7 1-3.2 1-4.2 3.7"/>
  <path class="cls-4" d="m16.9 31.9c-0.5 0.2-0.9 0.2-1.4 0.5"/>
  <path class="cls-4" d="m15.9 32.6c-0.5 0-1.3 0-1.7 0.5"/>
  <path class="cls-4" d="m15.5 33.4c-0.6 0-1.4 0.2-1.6 0.7"/>
  <path class="cls-2" d="m20.9 34.1v7l1.7-2.5v-4.5h-1.7z"/>
  <path class="cls-3" d="m110.6 189.4c-5.5 1-8.6 7-5.5 10.2 1 1.3 2.5 2.5 5.7 2.5 9.8 0.3 8.6-9 3-12l-3.2-0.7zm-1 11c-5-1.8-4.2-8.5 1.2-9.3 5.4-0.7 8.8 5 4.6 8.8l-5.8 0.5z"/>
  <path class="cls-3" d="m109.1 191.1c-2.5 1-5.2 5.5-1 6.5 4.3 1 7-4.2 3.8-6l-2.8-0.5z"/>
  <path class="cls-2" d="m113.1 191.6c2.8 2-0.5 5.8-3 5.6l3-5.6z"/>
  <path class="cls-2" d="m102.9 199.4-5.3 1.5 4.8 0.2c2 0 1.7-2 1.2-2.7l-0.7 1z"/>
  <path class="cls-2" d="m113.6 196.9c1.8-0.8 2.5-4.1-0.5-5.3l0.5 5.3z"/>
  <path class="cls-2" d="m113.8 193.2 0.6 1.2 0.2 1 1-1.3-1.8-0.9z"/>
  <path class="cls-2" d="m114 193.4 0.6 1.2 1-0.5-1.6-0.7z"/>
  <path class="cls-2" d="m113.4 195.4 0.2 0.7 1-0.7h-1.2z"/>
  <path class="cls-2" d="m113.6 193.4 0.5 0.7h1.5l-2-0.7z"/>
  <path class="cls-2" d="m39.2 198.2c1.3 1.7 3.3 2.4 5.9 2.7l-4.6 0.2c-2.1 0-1.9-2-1.3-2.9z"/>
  <path class="cls-2" d="m39.2 198.6c0-4-0.8-7-5-9l-2-0.5c-4.6-0.2-10.6 4.8-6.6 10.5 2.6 3.5 13.3 4 12.6-2.4l1 1.4zm-2.8-0.7c-1.5 5.2-11.8 4.2-10-2.5l3-3.5c4.8-1.8 8 3.2 7 6z"/>
  <path class="cls-3" d="m34.6 191.9c-4.7-2.3-7.5 4.2-3.5 5.5h3.5l2-1.3-0.2-2.2-1.8-2z"/>
  <path class="cls-2" d="m31.5 197.4c-3.1-2-1.1-6 1.5-6l-1.5 6z"/>
  <path class="cls-2" d="m31.9 189.4c-0.8-1.3-4.8-7-9.8-6.5-5.2 0-3.5 3.7 2.1 4-2.7-3.8 0-4-4.3-4.3l1-6.5 1.5 0.5 0.2 4.3c5.5 0 9.6 3.2 12.5 8.2l-3.2 0.3z"/>
  <path class="cls-3" d="m24.2 186.9c0.7-1.3-3.1-3.7 1.2-3.8l-4-0.5c-6.9-0.2-2.8 7 1.5 5.8l2.7 0.7-1.4-2.2z"/>
  <path class="cls-3" d="m22.9 188.4c0.5 1.7-0.3 3-0.7 3.5-0.3 0.5-0.6-2-1.1-1.3-1.5 2.3-4.2 0-4.2-2.7 0.2-2 1.7-5 4.5-5.3 0 0 3.5 0 2.8 2l1.2 1.3-0.8 0.5 1.5 2.7-3.2-0.7z"/>
  <path class="cls-2" d="m30.9 192.4c-2 2 0.6 5.2 2.7 5.2l-2.7-5.2z"/>
  <path class="cls-2" d="m28.9 192.6-1.3 2.8-1-1.3-0.5-0.7 2.8-0.8z"/>
  <path class="cls-2" d="m27.9 193.4-0.5 1.2-1.3-0.5 1.8-0.7z"/>
  <path class="cls-2" d="m28.6 195.4-0.4 0.7-0.8-0.7h1.2z"/>
  <path class="cls-2" d="m28.4 193.4-0.8 0.7h-1.5l2.3-0.7z"/>
  <path class="cls-3" d="m19.1 182.9c-2.2 2 0.3 5.2 2 4.5"/>
  <path class="cls-2" d="m44.5 202.1h-19.4l-0.5 1.8h22.8l-1.3-1.8h-1.6z"/>
  <path class="cls-2" d="m37.9 199.1c-0.5 2.5 0.3 3.3 1.7 3h6.3l0.2 0.5h-5.9c-2.6 0-2.6-1-2.3-3.5z"/>
  <path class="cls-2" d="m17.6 39.1h-1.1c-2.4 0-2.6 1-2.6 5.6l-0.7 0.7v-4.5c-0.2-2.8 1.4-2.5 4.4-2.5v0.7z"/>
  <path class="cls-2" d="m130.4 38.4c1 0-0.5 0.7 0 0.7h-3.4v-0.7h3.4z"/>
  <path class="cls-2" d="m130.3 39.1c0.8 0 0 1 0 1-0.8 0-2.2-1-3.3-1h3.3z"/>
  <path class="cls-2" d="m129.8 39.1c1.6 0 0.1 1 0.5 1-0.8 0-2.2-1-3.3-1h2.8z"/>
  <path class="cls-2" d="m129.6 38.4c1 0 0.2 0.7 0.3 0.7h0.4c1.1 0-0.4 1 0 1 1.1 0-0.4-1 0.6-1 0.6 0-1-0.7-1.3-0.7z"/>
  <path class="cls-2" d="m129.8 39.1c1.7 0-0.2 1 0.5 1 1.1 0-0.4-1 0.8-1h-1.3z"/>
  <path class="cls-2" d="m129.9 38.4c1.1 0 0 0.7 0.4 0.7h0.6c0.6 0-1.3 1-0.6 1 1.1 0-0.4-1 0.7-1 0.6 0-0.9-0.7-1.1-0.7z"/>
  <path class="cls-2" d="m129.9 176.4h0.4c0.8 0 0 1 0 1h-3.3l0.1-1h2.8z"/>
  <path class="cls-2" d="m129.6 177.4h0.7c0.8 0-0.4-1 0-1 1.1 0-0.4 1 0.7 1h-1.4z"/>
  <path class="cls-2" d="m130.3 176.4c1.1 0-0.7 1 0 1 1.1 0-0.4-1 0.8-1h-0.8z"/>
  <path class="cls-2" d="m129.9 177.4c1.6 0 0-1 1-1 0.6 0-0.8 1-1 1z"/>
  <path class="cls-2" d="m130.3 176.4c1.1 0-0.4 1 0 1 1.1 0-0.4-1 0.8-1h-0.8z"/>
  <path class="cls-3" d="m87.9 202.4c-3 2-3.5 1-7.5 1l1.5-1c2.5 0.7 4.2-1.5 6 0z"/>
  <path class="cls-2" d="m129.9 39.1c1.5 0 0 1 0.4 1 0.7 0-0.4-1 0.6-1h-1z"/>
  <path class="cls-2" d="m130.3 177.4c1.1 0-0.4-1 0-1 0.7 0-0.4 1 0.6 1h-0.6z"/>
  <path class="cls-3" d="m89.1 203.4c7.8-3.3 14.1-12.3 14.8-30l2.5-0.8c-1 14-6.9 26.8-15.8 31.3l-1.5-0.5z"/>
  <path class="cls-2" d="m129.4 176.4c2.1 0 1.2 1 0.9 1 0.7 0-0.4-1 0.6-1h-1.5z"/>
  <path class="cls-2" d="m129.9 38.4c1.5 0 0 0.7 0.4 0.7 0.6 0-0.4-0.7 0.6-0.7h-1z"/>
  <path class="cls-2" d="m129.8 177.4c1.7 0 0.1-1 1.1-1 0.6 0-0.8 1-1.1 1z"/>
  <path class="cls-2" d="m130.3 39.1c1.1 0-0.4-0.7 0.6-0.7 0.6 0-0.8 0.7-0.6 0.7z"/>
  <path class="cls-2" d="m130.3 176.4c1.1 0-0.4 1 0.6 1 0.5 0-1-1-0.6-1z"/>
  <path class="cls-2" d="m129.6 38.4c1.8 0 0.3 0.7 0.7 0.7 0.6 0-0.4-0.7 0.6-0.7h-1.3z"/>
  <path class="cls-2" d="m130.3 177.4c1.1 0-0.4-1 0.6-1 0.7 0-0.8 1-0.6 1z"/>
  <path class="cls-2" d="m129.9 39.1c1.6 0 0-0.7 1-0.7 0.5 0-0.8 0.7-1 0.7z"/>
  <path class="cls-2" d="m129.9 176.4c1.6 0 0 1 1 1 0.6 0-0.8-1-1-1z"/>
  <path class="cls-2" d="m130.3 38.4c1.1 0-0.4 0.7 0 0.7 0.7 0-0.4-0.7 0.6-0.7h-0.6z"/>
  <path class="cls-2" d="m130.3 177.4c1.1 0-0.4-1 0.6-1 0.5 0-1 1-0.6 1z"/>
  <path class="cls-3" d="m104.1 172.4c0.3 4-3.1 4-5.7 6.5-1.5-0.3 1.5-3.3-3.8-6.3 3.8-0.7 8-6.5 9.8-4.5 2.7 1.5 1.2 4.5-0.3 4.3z"/>
  <path class="cls-3" d="m88.1 167.4c-6.2 0.7-8.7 11.2-3.6 13.6 3.4 1.1 4.5-2.6 2.6-2.8 0.8 2.2-3 3.4-3.5 0.2-0.7-4.3 2.6-7 6.5-5.5l3.3 0.5c3.2-0.3 7-5 3.2-3-2.5-0.8-6-5.2-8.5-3.3v0.3z"/>
  <path class="cls-3" d="m105.9 173.4c1.7-3 2.8-4 4.2-5.3 2.8-2.5 0.3-9.9 5.5-14.7v3.7 4.8l-2.5 5.5c-1.5 0.7-6.7 7.5-7.2 6z"/>
  <path class="cls-3" d="m105.4 172.4c1.2-0.5 0.2-4.3-3-3.3-1.8 0.5-5.8 3.5-8.8 4-4.6 0.5-6-4.5-5.5-6 3.3-2 6.5 4 9.3 3.5l5-2.5c4-1.5 5 2.8 3 4.3z"/>
  <path class="cls-4" d="m95.6 172.4c2.3 1 3 4.5 2.5 6.2 0.8-4 2-6.5 4-8.2"/>
  <path class="cls-3" d="m108.9 170.6 1.7-2.2c0.8-0.8 2.8-0.5 2.8-0.5 1.7 1.5 3.7 1.7 4.2 1.5 4.8 0-2.5-1.5 1.8-0.8 5 0.5 7.5-2.5 8-3 1.2-1.2 2.2-3.7-0.3-4.7l0.3-1.8c3.2-0.7 2.7-3 5-5.2 1-0.8 1.2-4.5 0.7-3.8l-7-0.5c-2.7-1.2-7.2 1-10.5 5.8l-5 12.7-1.7 2.5z"/>
  <path class="cls-4" d="m110.6 167.4c2.5-2 3.8-4.5 8.5-5.3h5.3l3.2-0.7"/>
  <path class="cls-4" d="m110.6 167.4c2.5-3 6.3-8 13-10.5 4-1.5 8.5-3 9.8-5.3"/>
  <path class="cls-4" d="m116.6 152.6c-2 3.3-4.2 7.3-4.7 12.5"/>
  <path class="cls-4" d="m122.1 151.1c-2 2.3-4.2 5.8-5.5 10.3"/>
  <path class="cls-3" d="m117.4 152.1-0.3 2.3c3-4.5 6.1-6 6.8-5.3h-0.3 0.4-0.4v0.3-0.3h0.3l0.7-0.2-1 0.2 1.8-0.2c-1.3 4.5 5.5 3.7 8 1 0.5-0.5 0 0.7-3 4.5-0.5 2.5-3 5.2-3 5.2h0.7"/>
  <path class="cls-2" d="m130.3 176.4c2.1 0 0 1 0 1 1.1 0-0.7-1 0-1z"/>
  <path class="cls-2" d="m129.9 39.1c1.6 0 0-0.7 1-0.7 0.5 0-0.8 0.7-1 0.7z"/>
  <path class="cls-2" d="m106.4 58.4c6.5 2.2 17.7 10.7 21.7 25l1 2.5c-2.5-6.3 2.5-13.8 6-22.5l1.3-1-0.5 2.7 0.5 53.8-1.5 1.5v-54.3c-3.3 1.8-4.5 9.3-5.8 19.8 2.3 7 2 20.5-0.2 32.5 1.5-13.5-0.3-23-10.3-31l1.8-1c4.2 3 7.5 8 8.2 11.7l-1.2-7.5c-1.8-7.7-9.3-24.7-21.5-30.5l0.5-1.7z"/>
  <path class="cls-3" d="m97.9 158.1c1.7-1.2 1.2-0.5 2.2-2 1-1.7 4-1.7 2.5-8l-0.2-2.5c-1.8 0.3-3.3 4.5-3.3 4.5l-1.2 8z"/>
  <path class="cls-3" d="m96.4 139.6c-1.8 0.5-2.3 4.5-1 5.5l2.7 5.3 2-1.8c-0.5-4.7-5.6-5-3.7-9z"/>
  <path class="cls-3" d="m89.6 141.4 0.5 1-1.5-1.3 0.3 2-1.3-0.5 0.5 1.3-2.6 0.2c1.1 1 0.4 4.5 0.4 4.5v3.8l2.5 5.5 5 2.7 3.2 3.3c2 2 4 0.7 2.5-3.3l-1.2-2 1.5-6.5c-0.8-4.7-3.3-6.7-9-10.7h-0.8z"/>
  <path class="cls-3" d="m86.6 148.1c-2.1-2-5.2-2.7-6.5-0.2 2.8-1.3 3.3 4 4.5 5.7l2 3 3.3 3.8 5.7-0.3-3.2-1c-5-1.5-7.5-4.7-5.8-11z"/>
  <path class="cls-4" d="m88.6 142.6c-2.2 9.5-3.1 16.5 7.5 17.8"/>
  <path class="cls-4" d="m91.1 145.9c0.8 3.2-3.2 11.7 5 14.5"/>
  <path class="cls-4" d="m92.6 153.9c-0.2 3.2 1.8 5.2 4 6"/>
  <path class="cls-4" d="m92.1 147.1c-0.2 5.3 4.5 6.3 4.5 7.8v5c4.5-4.3 2-10.3-5.5-14"/>
  <path class="cls-4" d="m89.9 141.6c0.2 4.8 8.7 3.5 8.7 11.8"/>
  <path class="cls-4" d="m89.1 141.6c2.8 4.3 10.3 4.3 10 12.3"/>
  <path class="cls-3" d="m79.4 153.9c4.5-0.3 5.1 8.5 13.2 6.5-4.5-2.3-6-1.3-8.5-4.8-1.5-2.2-3-2.2-4.7-1.7z"/>
  <path class="cls-3" d="m103.6 80.6c3-0.7 3.3 3 5.5 3.5v0.5c-4 0.8-8.5 4.8-7.5 8.8 1 3 3.8 1 3-0.5-3.2 1.5-2.5-3 1.3-5 2.5-1.3 2.5 0.5 5 0.5 3 0 2.5-2 5-2s7.5 3.5 8.7 5.2l-1.2-2.5-5.8-4v-0.5l-0.5-2.7-4.7-3.5-1.5 1.7-7.3 0.5z"/>
  <path class="cls-4" d="m109.1 84.6c4.8 0 7.5-1 10.8 1.8"/>
  <path class="cls-4" d="m108.1 80.4c2.8 0.7 6 2.5 8.3 3.7"/>
  <path class="cls-3" d="m103.6 80.4c1.3-2 4.3-2.3 7.5-1l0.5-1c1.3 2 5.3 0.2 6 4.7l-0.5 2.3-4.5-1.3-5 0.8 4-0.8c-1.7 0-4-3-4.5-3.2l-3.5-0.5z"/>
  <path class="cls-3" d="m122.9 133.6c1 0.8 2.2-0.2 2.7-1.5 2.5-3.7 3-1 3.3 1.3 0.7 2.2 2.2 3.5 2.7 3.5h-0.5 0.5-0.5 0.5l2.5 0.7v-1c1 0.8 5.5 2.8 6 2.3-1.5-1.8-2.5-6-2-6.3h1c-2.5-6.7-7.7-6.5-13.5-3.2l-2.7 4.2z"/>
  <path class="cls-4" d="m125.6 129.9c5-0.3 6.8 0.7 8.5 6.7"/>
  <path class="cls-4" d="m130.6 129.4c2.5 1.5 6 4 7.3 6.7"/>
  <path class="cls-4" d="m131.1 130.9c3.3-0.3 5.8 0.5 6.8 0.7"/>
  <path class="cls-3" d="m120.4 51.6c-4.8-1.7-6.5 6.3-3.3 5.8 1.5 0 2.3-2.5 3.5-2.5l-0.2-3.3z"/>
  <path class="cls-3" d="m119.1 53.9c-4.5-2.5-5-7 0.5-9.5l2.3-2 0.2-2.3 2.3 0.8-0.5 2.5 0.5 4-5.3 6.5z"/>
  <path class="cls-3" d="m117.1 52.6c-1.7-4.5 4.8-8.2 6.5-10.2l-0.2-2c1.5 2.7 0.7 2.7 1.2 3l-7.5 9.2z"/>
  <path class="cls-3" d="m116.9 51.6c-0.8-4.2 5-6.7 6.7-9.2v-2c0.5 1.7 1.3 2.5 2 2.2l-8.7 9z"/>
  <path class="cls-3" d="m117.6 52.6c-1-5 4.8-7.2 6.5-9l1.8-1.5 0.2 0.5 0.3-1.5v2.5l-1.3 6.3-6 4-1.5-1.3z"/>
  <path class="cls-3" d="m125.1 42.4-0.7 1.2c-4.8 3-9.8 5.3-7.3 9l2 1.3 6-11.5z"/>
  <path class="cls-3" d="m124.9 41.9 0.7 0.2 0.8 0.5v-1.5l-0.5 2.3 1.2-1.3-0.2 1.8 1.2-2.8-0.7 2.3-1 3.5-4.5 7-3.8-0.3c-2-4.5 3.5-7 6.8-9.2v-2.5z"/>
  <path class="cls-3" d="m125.1 43.4 1-1-0.2 1.5 1.7-2.5-1.2 2.5 1.2-1-1.2 2.5-6 8.7-2.8-1.5c-0.7-3.7 4-6.2 7.5-9.2z"/>
  <path class="cls-3" d="m117.9 53.9c-1.8-4.8 3.7-7 7.2-9.5l0.8-1.3 0.5 0.5v-1.5l-0.3 2.3 1.3-1.5-0.5 2.2-0.5 1.8-6 7h-2.5z"/>
  <path class="cls-3" d="m124.9 43.4 0.7-0.5-0.2 1.5 0.5-1 0.2 0.7 0.8-1.2-0.5 1.5v2l-5.8 7.7-3-1.5c-1-3.2 3.8-6.2 7.3-9.2z"/>
  <path class="cls-3" d="m125.1 43.4 1-0.8-0.2 1.3 1.7-1.3-1.7 2.3 1.7-1.3-1.5 1.8-5.5 8.5-2.5-1.3c-1-3.2 3.8-6.2 7-9.2z"/>
  <path class="cls-3" d="m125.6 43.4 0.3 0.2 1-0.7-0.5 1.5v1.7l-5.8 7.8-2.5-1.3c-1-3.2 4.3-6.2 7.5-9.2z"/>
  <path class="cls-4" d="m117.1 51.6c-0.5-3.7 5.3-5.7 7.8-8.2l0.2-1 0.5 0.2"/>
  <path class="cls-3" d="m124.6 45.4c0.8-1 2.5-2.5 1.5-2 0.3-1 0.3-0.8 0.3 0.2l1-1-0.3 1 1-1-1.2 1.8 0.5-0.8-0.5 1.8h-2.3z"/>
  <path class="cls-3" d="m124.9 54.4 0.2-9 0.5-1.8c0.8 0 0.5-0.2 1.3-0.7l-0.5 1.2 0.5-0.5 0.5-0.2-2.5 11z"/>
  <path class="cls-3" d="m118.1 53.6c2 1.5 7 2.5 9.3-1 1.2-1.7 3-4.2 3-4.2l-1-0.3-8.3 5.8-3-0.3z"/>
  <path class="cls-3" d="m118.1 53.6c3.8 2 5 1 6.8 0.3 2-0.8 4.2-4.5 5.5-5.5v-0.5 0.5-0.5 0.5c0.2-0.8 0-0.5 0 0v-0.5 0.5-0.5l0.2 0.5-0.2-0.5 0.2 0.5-0.2-0.5 0.2 0.5h-0.2c0.2 0 0 0 0 0" fill="#D4A53F" stroke="#6A4A1E" stroke-width=".25"/>
  <path class="cls-3" d="m118.1 53.6c5.5 0.5 9.5-2.7 7.5-9.5l-1 1.3c-1.2 2.2 1.3 5.7-6.5 8.2z"/>
  <path class="cls-3" d="m125.1 43.6 0.5-0.2-0.7 2c1.2-0.8 2.5-2 2.5-2.8l-0.5 1.5 0.2-0.2 0.5-0.8-2.5 0.5z"/>
  <path class="cls-3" d="m125.6 43.9c0.5-0.5 0-0.5 0.8-1.3l-0.3 1.3 0.8-0.5-0.5 1-0.8-0.5z"/>
  <path class="cls-3" d="m124.9 45.4c1.5-1.5 3-2.5 2.7-2.3 2 4 0 8-3.5 9.8l-3.5 1.2c4.5-3 0.8-6.2 4.3-8.7z"/>
  <path class="cls-3" d="m119.1 53.9c2.3 0.7 4.8-1.3 6-2l-1.5 1.7-2.2 0.3h-2.3z"/>
  <path class="cls-3" d="m117.9 56.6c-1.8 5.5-0.3 9.8 3.5 14l2 2.5-2.3-1.5-4.2-6.2c-1.5-3.3-1.5-8 0-9l1 0.2z"/>
  <path class="cls-3" d="m128.6 73.9c-1.2-4.8 0.5-7.3 1.8-8.3l1.2-1.5 0.5 1.3 2-2 1-0.5-1 7.7-3 11-1.2 2.5-6.5-12.2v-1.3c1.7-1.5 3 2.8 4 3.3h1.2z"/>
  <path class="cls-4" d="m129.9 81.6c1.5-9.7 6.7-19.2 13.2-18.2"/>
  <path class="cls-3" d="m133.4 63.9 2.7-0.8c3.8-2.5 6.3-1.7 7.3 0.3-3.3-0.8-8.3 1-7 3.2l-0.8 4.8 1.5-0.8c-1.2 3.5-1.2 9.3-6 10.5l-3.2 0.5 1-4.7 1.5-10.8 3-2.2z"/>
  <path class="cls-4" d="m128.6 79.1c2-3.2 4.8-5.5 7.3-7"/>
  <path class="cls-4" d="m128.4 73.6c2.5-2.2 5-4.7 7.5-5.7"/>
  <path class="cls-3" d="m120.6 53.9c4 1.7 5.8-1.3 8.8-3.8 1.7-2.5 1.7-2.5 1-1.7 2.2-1 0 0 0 0v-0.5 0.5h0.2-0.2 0.5-0.5 0.7-0.7 0.7-0.7 0.7-0.7 0.7-0.7 0.7-0.7 0.7-0.7 0.7-0.7 0.7-0.7c0.2 0 0 0 0 0" fill="#D4A53F" stroke="#6A4A1E" stroke-width=".25"/>
  <path class="cls-3" d="m97.6 121.1-3.5-4c-1.5-4.5-3.3-3-4.7-3 3.5 0 2.2 4 5 5.8l3.2 1.2z"/>
  <path class="cls-3" d="m97.6 124.6c-4.5-0.7-5-7-8.5-4.5 2.5-3.7 5.5 0.5 5.5 0.5 2.8 4.3 6 3.3 8.5 2.8l0.5 0.2-6 1z"/>
  <path class="cls-3" d="m93.6 113.9c1.5 0.7 0.5 6.2 6.3 9l3.5 0.5 0.2 0.2 1.5 2.5 1.3 0.8c1.2 0.7 4 1 1.7-4l-2.5-3.3-5.5-7.5-7-1.2 0.5 3z"/>
  <path class="cls-4" d="m94.6 109.1c2.3 5.5-3 13.5 8 14"/>
  <path class="cls-4" d="m94.6 108.4c3.5 4.5-1.7 12.7 8 14.5"/>
  <path class="cls-4" d="m95.6 107.9c4 4.5-1.2 12.2 7.8 15"/>
  <path class="cls-3" d="m95.6 107.9c1.3 5.5 4.8 3.5 4 10.2l3.8 4.8 2.5 1 1.2-5-0.2-7.5-8.8-4.5-0.5 1.5-0.5-1-0.2 1.5-0.8-1.3 0.3 1.5-0.8-1.2z"/>
  <path class="cls-4" d="m96.9 108.9c1.7 5.2 8.5 2.5 8.7 11"/>
  <path class="cls-4" d="m97.6 108.4c1.8 4 9.5 2.7 8 11.5"/>
  <path class="cls-4" d="m98.1 107.1c1.5 3.8 9.8-0.2 8.8 11.8"/>
  <path class="cls-3" d="m104.1 123.6 2 3.3c2 1.5 3.3-0.5 3.3-0.5 1.2-2.8-3.3-5.3-3-6.8l-2.3 4z"/>
  <path class="cls-3" d="m106.4 120.6c1.7-2.7 2.7-5.2 0.7-8.7l-0.2-1.5 1.5 1.5c1.7 2.5 0.7 7-2 8.7z"/>
  <path class="cls-3" d="m106.4 120.6c6.5-7.5-1.3-11.5-2.3-11.5l-3.5-1.2-2.5-1 2 3 6.3 5.2v5.5z"/>
  <path class="cls-3" d="m105.6 122.6c2-3 2.8-8.2-2.5-11.7l-3-1.5-2-2.5-0.5 2.5c0.3 4.7 7 8.5 7 10.5l1 2.7z"/>
  <path class="cls-3" d="m105.6 122.6c0-6.5-6.2-3.7-7-8.7l-3-6 2 3 8 6.2v5.5z"/>
  <path class="cls-3" d="m102.6 57.1c-4.2-0.2-12.5-2.5-14-2.2l1.5 0.7 2.5 0.3 2.5 1.2h7.5z"/>
  <path class="cls-3" d="m105.1 121.6c0 1.5 4.3-2 3.3-8.7 2 2.7-1.8 7.5-2 7.7l-1.3 1z"/>
  <path class="cls-3" d="m105.1 120.6c2.8-2.7 4-11.5-4.5-12.2l4 1.2c3 2 3.8 5.3 2.5 8l-2 3z"/>
  <path class="cls-3" d="m105.6 120.6c2.3-1.2 3.8-6.5 2.5-9-0.7-4.2 2-4 1-3.2-2.5 2 2.5 6.2-3.5 12.2z"/>
  <path class="cls-3" d="m120.4 53.9c1.7-0.3 4.7-1.8 4.7-8.5"/>
</svg>