<svg xmlns="http://www.w3.org/2000/svg" viewBox="0 0 147.4 211">
<!-- SVG created with Arrow, by QuiverAI (https://quiver.ai) -->
  <style type="text/css">.cls-0 {fill:#FBF3E3;stroke:#473418;stroke-width:0.75;stroke-linecap:round;stroke-linejoin:round;stroke-miterlimit:10;}
.cls-1 {fill:#AE8746;stroke:#473418;stroke-width:0.5;stroke-linecap:round;stroke-linejoin:round;stroke-miterlimit:10;}
.cls-2 {fill:#C99D57;stroke:#684F28;stroke-width:0.25;stroke-linecap:round;stroke-linejoin:round;stroke-miterlimit:10;}</style>
  <path d="m132.1 22.8c-4.9-0.2-4.4 4.2-7.6 6.2-6.9 4-15.2-4.6-12.8-9.5 1.2-2.5 3.7-3.5 5.4-3.1 2.1 0.5 1.9 3.2 0.8 3.5-0.7-1.6-2.3-1-4 0.6-0.6 3.1 2.1 6.2 6.1 5.1 2.6-0.6 3.9-2.7 4.6-3.9 3.5-6.5-2.2-16.7-10.7-16.9-4-0.5-9.8 0.7-13.5 3.2-1.3 0.8-2.9-0.7-1.7-1.8 2.4-2.3 7.8-3.8 12.2-3.6 9.9-0.2 16.3 8.8 12.7 15.9v0c-1.4 2.8-5.1 4.4-6.1 1.6-0.4-0.9-1.3-0.3-1.3 1 0 2.5 4.2 5.2 7.4-0.4 2.6-5.6-1.2-14.3-11.1-14.3-3.7 0-7.4 1.2-10 3-2.9 1.4-5.9 2.7-8.4 1.7-1.7-0.6-3.6-2.7 0-5.3 1.5-1 1-2.3-1.4-2.5-1.7-0.1-4 0.1-8.9 0.3h-19.7c-5 0-8.2-0.3-9.9-0.1-2.1 0-2.6 1.4-1.3 2.3 3.7 2.6 2.2 4.7 0.4 5.3-4 1.3-7.9-2.1-12.8-3.1-6.4-1.6-10.7 1.7-12.4 5.1-3 4.7 0 7.8 1.8 7 0.7-0.3 0.5-1.4 1.3-1 1.4 1.2-0.8 4.7-4.7 2.8-5.6-3.4-2.1-10.7 0.4-12.8 4.6-4.1 13-6.3 19.8-1.5 2.2 2 3.7-0.2 1.7-1.7-2.3-1.8-5.8-2.9-10.2-2.9-9.1-0.2-14.8 5.6-14.8 12 0 2.1 0.2 4.1 1.2 5.5 3.4 4.9 9 3.9 9 0.6 0-1.8-1.5-2-1.7-1.1-0.8 3-5.5 1.9-3.4-2.8 2.6-3.8 8.5-0.8 7.9 4.7-0.5 5.1-7.8 10.5-12 7-3-1.9-2.8-6-6.8-6.1-8.2-0.2-12.2 7.8-10.2 13.7 1 2.9 2.7 4.9 5.2 5.4 2.3 0 2.8 1 2.3 1-2.5 1-6-1.3-7.3-6-1.4-7.3 4-13.8 10.5-14 3.6 0.1 3.5 2.9 5 4.5-2.5-0.5-6.7 1.5-6.2 6.1 0.5 2.9 2.6 6.6 2.2 10-0.5 3.1-2.1 6.1-4.9 4-1.3-0.9-2.2-2.4-3.8-2.4-2 0.1-2.3 2-2.3 6.1v108c0 3.7 0.1 7.4 2.9 7.4 1.9-0.1 3.2-2.5 4.6-2.6 2-0.4 3 2.2 3.3 4.5 0.5 3.4-1.8 7-2 9.5 0 3.4 2.5 5.1 5.7 4.6-0.9 1-1.5 3.3-2.7 4.4-3 1.6-9.3-0.5-10.5-6.1-1.5-5.8 1.6-10 4.2-10 2.3-0.3 2-1.5 0.6-1.5-3.7 0-6.6 4.7-6.1 9.2 0.5 6.6 6.8 10.5 11.3 9.9 3.7-0.6 3-4 6-6 6.3-3.5 13.1 3.4 11.2 8.6-1.5 4.3-7.2 4.8-7.5 1 0-2 1.3-2.2 1.8-0.9s3.3 0.4 3-2.3c-0.8-4.3-7.5-4.3-10 1.1-2.3 6.2 2.2 16.1 13 17 4.1 0 8.6-0.6 11.6-2.9 1.9-1.4-0.1-3.7-1.5-2.1-2.1 1.5-5 3.4-9.9 3.4-6.7 0-13.2-4.9-12.6-12.8 0.6-5 5.1-6.2 7.1-5 1.5 0.9 1.8 3.9 0 3-0.4-2.6-4.9-2.5-3.5 3 2 3.6 5.4 7.3 10.3 7 5.1-0.2 8.8-3.5 13.3-4 3.2-0.2 5.4 2 2.7 4.5-2.4 1.6-2.8 3.5 0 4 2 0.1 5.8-0.1 10.7-0.2h19.1c4.5 0 8.7 0.5 9.7 0.1 1.7 0 1.8-1.5 0.7-2.3-3.7-2.5-3.1-6.2 1.5-6.2 3.3 0 7.8 3 11.8 4 4.7 1.1 9.2-1.1 11.7-5 3.4-4.6-0.7-7.4-1.4-4.6-1.6 1.3-3.1-1.8-1.2-3.3 2.9-2 7.1 0.8 7.1 5.3 0 5.7-4.2 11.7-12.7 12.2-3.9-0.1-6.8-0.7-9.8-3-2.6-2.1-3.7 0.8-1.6 1.9 2.9 2.2 8.2 2.9 10.9 2.9 9.5 0 13.5-6.5 14-12 1-8.4-7.7-11.4-9.8-7-1.2 4 2.9 5.2 3.1 3 1.5-1.5 1.3 2.1 0.3 3.1-1.6 1.5-6.4-0.1-6.9-4.1-0.7-6.3 7.1-10.9 11-9.4 4.5 1.1 4 5.4 6.6 7.4 2.7 1.5 9.3 0.5 10.9-6.3 1.8-6.7-2.5-12.5-6-12.5-1.5 0-1.5 1.3 0.3 1.5 4.1 0.4 6.1 7.3 3 12.4-2 3.4-6.2 5-8.2 4-1.1-0.5-1.7-2.5-3.1-4.3 3 0.7 5.5-1.3 5.5-4.3 0-2-2.5-5.9-2.5-9.5 0-3.9 2.3-6.4 4.3-4.8 1.2 0.5 2 2.4 4 2.5 2.2 0 2.5-2.1 2.5-7.6v-107.5c0-3.9-0.3-6.6-2.3-6.5-2.2 0-3 2.9-5.2 2.9-1.9 0-3.5-2.9-3.4-5.9 0.1-3.1 1.9-6.1 2.1-8.9 0-2.5-1.9-5-5.5-4.6 1.5-1.6 1.8-4.6 4.4-4.4 4.5-0.1 9.4 4.4 8.6 10.8-0.7 3.6-2 5.5-4.5 5.7-2 0.4-2.1 2.3 0.8 1.8 2.6-0.8 4.7-3.3 5.1-7.3 0.2-5.7-3.4-11.6-7.9-12.3z" fill="#AE8746" stroke="#473418" stroke-linecap="round" stroke-linejoin="round" stroke-miterlimit="10" stroke-width=".75"/>
  <path d="m137.9 47.6c-1.5-0.5-2.4 2.4-5.8 2-2.6-0.5-5.2-5.1-4-10 0.8-3.1 2.8-6.6 0.9-8.6-2.4-2.9-5 0.9-10.5 0-4.6-0.6-10.9-7.6-8-12.4 1.9-3 4.2-3.2 5.4-3.5-2.3-3.6-6.8-4-12.5-1.5-3 1.3-6.8 3.4-10.3 2-2.6-1-4.2-3.5-1.7-6.6l0.5-0.6h-18-17.7l0.5 0.6c2.5 3.1 0.4 5.6-2.1 6.6-3.2 1.3-6.6-0.6-10.2-2-5.5-2.5-9.3-2.5-12.3 0l-0.5 0.8c1.3 0 5.5 2.2 5.9 6.2 0.5 6.3-5.4 11.3-10.9 10.8-3.1 0-5.4-2.3-7.2-1.4-2.4 0.6-2.3 3.1-1.5 5.4 0.7 2.6 2.2 5.7 1.6 9.1-0.4 2.9-2.1 5.6-4.4 5.5-2.7 0-3.6-2.1-4.6-2.1s-1 1.1-1 4v107.3c0 5 1 5.3 2.5 3.9 1.9-1.5 4.6-2.5 6.5 0.3 2.7 3.7 1.6 8.2 0 12.8-1.1 2.4 0.1 5.9 4.6 4.7 2.4-1 4.5-1.9 7.5-1 4.3 1.2 8.3 5.6 6.9 11.1-1.4 3.5-4.1 4.6-6.1 4.6 1.1 2.3 5 4.9 10.7 2.9 4.8-1.6 9.3-4.9 13.3-2.6 3.2 2 2 4.6 0.7 6.2-0.4 0.5 0 0.8 1.3 0.8 2.2 0 7.1-0.2 16.5-0.2 10 0 15.2 0.3 17.2 0.2 1.3 0 1.3-0.3 0.8-0.8-1.3-1.6-2.5-4.2 0.7-6.2 3.9-2.3 8.3 0.2 12.9 2.1s8.5 1.6 11.4-1.4l0.5-0.7c-2-0.3-5.3-1.8-5.8-5.9-0.5-5.4 5.1-10.9 10.8-10.1 2.7 0 4.6 2.5 7.2 1.5 1.8-0.3 2-2.8 1.5-4.3-1.2-3.5-3.6-9-1.6-12.6 2.1-4.1 4.9-3 7-1 1.6 1.6 1.6 0.1 1.6-3.9v-108.1c0-2.6 0-3.4-0.2-3.9z" fill="#FBF3E3" stroke="#473418" stroke-miterlimit="10" stroke-width=".75"/>
  <path class="cls-1" d="m142.9 3.5c0.6-0.5-0.3-1.4-0.8-0.4-1.1 1.3-2 0.3-4.1 1-0.9-1.7-3.3-1.7-3.4-2.1-0.7-0.9-1.2 0.4-0.6 0.9-0.9 0.6-3 2-1.9 4l0.5 0.7c-1.1-0.2-2.5-3.1-6.2-0.6-0.3 0.1-2.5-0.4-3.3 0.6 1 1.5 4 1 5.6 1.3-3.5 1-3.2 5 1.7 3.1l0.1-0.9 1.5 0.3-4.3 4c-0.6 1 0.7 1.5 1.2 0.6l4.7-4.4c-1.1 2.5 1.4 2.8 1.9 4.3 0.4 1.5 0.2 4.7 2.1 5.6 0-0.5-0.5-1 0.4-2.5 1.6-3.6-0.6-4.6-1.4-5.6 0.4-1.3 2 0.5 4.5-0.5l1.5-1.4c0.9 0.9 1.8 0 0.9-0.5s0-2.5-3.1-2.9c2.7-1.2 1.1-2.7 1.5-3.2l1-1.4z"/>
  <path class="cls-2" d="m135.2 3.4c2.2 1.7 1.4 4 0 6.1 1.4-0.9 2.2-5.4 0-6.1z"/>
  <path class="cls-2" d="m133.9 4.1c2.5 1.4 1.6 3.8 0.5 5.4 1.1-1.1 2.2-4.4-0.5-5.4z"/>
  <path class="cls-2" d="m133.4 8c1 1.1-1.9 0.6-2.9-1.1-1.4-0.5-3-0.5-3.9 0.2 2.8 1 3.5 0 5.8 2.5-0.8 1.4-3.9 2.5-5.8 0 1 0.5 2.9 2.8 4.9-0.2l2.9 1 0.7-0.5 1.3-1.5-3-0.4z"/>
  <path class="cls-2" d="m141.1 4.4-5 5.1c1-1 4.9-1.9 6.3-2.4 1-0.6 0-2-1.3-2.7z"/>
  <path class="cls-2" d="m135.1 11.9 1.5 2.1s2 1.6 0.5 5.9c0.5-0.4 0.5-1.3 0.8-1.3 2.2-3.2-1.3-5-2.8-6.7z"/>
  <path class="cls-2" d="m135.6 12.1c0-2.1 2.4-3.1 6.3 0l1.2-0.6c0-2-2.7-2.6-6.5-0.6 1.5-1.5 5.8-2.5 6.8 0.1 0-2-1-3.6-4.3-2.4-2 1-4 2-3.5 3.5z"/>
  <path class="cls-2" d="m134.9 14.1c-2.5 0.8-3.8 5.5 0.5 5.3-2.3-0.8-1.3-3.5 0.5-3.8l-1-1.5z"/>
  <path class="cls-2" d="m135.5 15.9c-1 1-1 2.7 0.5 2.7 1.1-1.2 0.5-2.6-0.5-2.7z"/>
  <path class="cls-1" d="m6.4 3.9-0.9-0.5c-0.9-0.5-1.5 0.7 0 1.2 1 0.9-0.5 1.8 0.6 3.3-1.5 0.5-1.1 2.6-2.1 3.1-0.4 0.6 1.1 1.5 1.5 0.5 1.1 2.6 4 2.1 4.6 1.6l0.8 0.4c-3.5 3.1-1 4.4-0.5 8 1.7-0.9 1.5-5 2.1-5.9 2 0.9 1.6 3.3 0.4 3.4 2.6 1.4 5.2-3 1-5.1l0.6-1.4 3.9 3.6c1.1 0.8 1.7-0.5 0.7-1l-4.2-3.6 2.5 0.4-0.5-1.3c5.1 1.8 6.6-1.2 4.1-2.7 0.9 0 3.4-0.8 3.4-0.4 0-1-1.5 0-3-0.9-2.3-1.5-5 0-5.9 1.3l-0.5-0.3c2.1-2.6-0.6-4.1-1-4.7 0.5-1.4-0.4-1.4-0.5-0.5-0.4 0.2-2.4 1-2.5 1.7-1.4-0.6-3-0.2-4.6-0.2z"/>
  <path class="cls-2" d="m8.4 4.9 4.5 5.1-4.9-4.1 4.5 4.6-4.1-5.6z"/>
  <path class="cls-2" d="m14.6 4.1c-1.7 0.9-2 4.9 0 4.9-2.7 1-3.2-3.9 0-4.9z"/>
  <path class="cls-2" d="m13.6 3.5c-2.5 0.9-2.7 4-0.7 6.5-1.8-1.4-2.8-5.9 0.7-6.5z"/>
  <path class="cls-2" d="m7 4.4c-0.5 0-0.9 0.7-1.1 2 0.2 1.1 5.7 2 7.2 4.1l-0.5-1-5.6-5.1z"/>
  <path class="cls-2" d="m12.1 14.1-1.7-2.2c0 1.5-4.3 3.2-1.5 8 0.5-0.5 0-1 0.5-1.3 0.6-3.2 1.5-3.5 2.7-4.5z"/>
  <path class="cls-2" d="m12.5 12.5c0-1.9-2.1-3.5-4.4-3.6-2.6-0.5-3.2 1.5-3.1 2.5 1.1-1.9 4.6-1.9 6.5-0.9-2.4-0.5-5 0.1-5.4 1.6 3.3 1 3.8-2 6.4 0.4z"/>
  <path class="cls-2" d="m12.9 14.9-1 0.7c1.2 0.9 1.7 2.8 0 3.3 3.7 1.6 3.1-3.5 1-4z"/>
  <path class="cls-1" d="m137.4 190.4c-0.5 1.1-0.5 2.2-0.5 2.2-1.8-2.1-6 1.3-3.3 4l0.4 1.4-5.1-3.1c-0.8 0.2-1.3 0.7-0.5 1.2l5.2 3.9c-2.7-1.9-8.6-2.9-8 1.4 2.5 0 3.1 0 4.5 0.6-2.2 1-4-0.6-7.5 1.5 0 1.1 1.5-0.4 2.9 0.6 3.6 2.5 5.1-0.5 6.9-1.5-0.8 2 1 4.9 2 4.8-0.8 1.5 0.2 2 0.5 1.2 0.5-0.7 2.6-0.5 2.5-2.5l0.7-0.5c1.8 1.8 3.5 1.4 4 1 1 1.9 2 0.9 1 0l-0.7-0.5c1-2.2-0.5-2.7-1.8-3.5 2.9 0.4 2.5-2.6 3.4-2.7 0-0.9-1.1-1-1.5-0.4-1.6-2.4-4.1-2.6-5.1-1.5l-0.4-0.5c3.6-3 1.5-4.4 1-7.1 0.1-1.3-0.6-0.8-0.6 0z"/>
  <path class="cls-2" d="m135.1 192.9c1.5 0.5 1.5 2.7 0.5 2.7-0.5 0-2-1.1-0.5-2.7z"/>
  <path class="cls-2" d="m136.6 196.1-1.5 1.3c-1 3.2 4.5 5.2 7 2.6-2.5 2-6.6 0.6-6.6-2 1.1 2.5 6.6 2.5 6.9 0.9-2.3-2-4.5 1-5.8-2.8z"/>
  <path class="cls-2" d="m134.4 196.6c-1 0.8-0.4 2.3 0.2 2.9-0.5-1.5-0.2-2.1 0.5-2.6l-0.7-0.3z"/>
  <path class="cls-2" d="m126.4 203c3.1 0.9 4.1 0.4 6.1-1.4 1-1.1 1.9 0 1.9 0.4-0.9 1.4-2.9 2.6-0.4 5.5 2.1-0.6 2.6-4.1 0.6-6.6 2 1.1 2.5 5.5 0.4 7l0.5 0.5c3.6-1.5 1.1-6.3-0.5-7.9l6 6.5-0.9-1.4 1.5 1.4-5.1-5.6-1.4-1.3-1.1 0.4c-0.9-0.9-2.1 0.4-2.6 1.1-1 1.5-3.5 0.8-5 1.4z"/>
  <path class="cls-2" d="m125.9 202.9c2-1.5 3.6 0.7 5.6-1.3-0.4-1.1-2.4-2.1-3.6-0.5-0.4-2.7 3.5-2.7 4.1 0 0.5-0.6 0.5-0.6 1.1-1.1-1.1-0.5-6-2.6-7.2 2.9z"/>
  <path class="cls-1" d="m10.9 190.5-0.4-0.5c-0.5-0.5-0.4 0.5-0.4 0.9-0.5 2.7-2.2 3.7 0.5 6.5v0.6c-1.5-0.1-2.5-1.5-5.1 0.6l-0.9 0.9c-0.7-0.9-2 0-0.7 0.4 1 0.7-0.3 2.5 3.1 3.1-2.4 1.1-0.9 3.1-1.5 3.6-1.4 0.4-0.5 2 0.6 0.4 0.4-0.4 0.4-0.4 1 0 1.4 0.4 2.3 0 2.9-0.9 0.9 2.4 2.6 1.9 3.1 2.9 0.4 0.5 1.3-0.1 0.8-1 1.2-0.5 2.6-2.5 1.6-4.4l0.4-0.6c3.6 3.6 5.6 0 7.7 0.9 1 0.2 0-1.9-2.6-1.5l-1.5-0.4c2.6-2-0.4-4.6-3.1-3l-1 0.5-1-0.1 5-3.5c0.6-0.4 0-1.5-0.8-0.8l-4.2 3.5 0.6-2h-0.5c2.4-3.2-1.1-5.7-2.4-4l-0.6 0.3-0.6-2.4z"/>
  <path class="cls-2" d="m11.1 192.9c0.8-0.5 1.9 2 0.9 2.7-0.9 0-1.5-0.7-0.9-2.7z"/>
  <path class="cls-2" d="m13.5 193.4c-0.4 2.2-2 2.2-2.4 2.2 1 1 1.9 0.5 2.4 1.8 0.4-1.5 1.6-2.5 0-4z"/>
  <path class="cls-2" d="m6.5 198.4c2 0 4.6 2 6.4 0-0.4 2.7-5 3.2-6.8 1.6 2 3 7 0.5 7-2.1 0 1.6-1.6-1.3-2-1.3-1.1 1.8-2.1-0.5-4.6 1.8z"/>
  <path class="cls-2" d="m6.5 199c0.5 3 4.6 1.6 5 0.9-1 0.6-4 0.6-5-0.9z"/>
  <path class="cls-2" d="m6.5 203.1c-1.4 0.3-0.4 1.8 0.5 3.5l6.4-6 0.6-0.5 1.4 0.3 0.5 0.2c-0.9-1.1-2-1.1-2.4-0.5l-0.4 0.5-5.2 6 1.2-0.7-1 1.1 5-5.9c-1.6 1.9-3.6 6.3 0.4 7.5l0.4-0.6c-1.8-1.4-1.8-5.4 0.5-6.9-2.3 1.8-1.9 5.5 0 6.5 2.7-3 0-4 0.5-5.5 0.2 0 1-0.5 1.6 0 1.6 1.8 3.5 2 6.4 0.9-1.4-0.6-3.8 0.6-5.4-1.4-1-0.5-2-2.1-3.1-1.6-0.5-0.1-1.3-0.5-1.9 0l-6 3.1z"/>
  <path class="cls-2" d="m17.4 199.5c1.5 0 3.1 1 3.1 1.9-1 1.2-3 0.6-3.5 0 0.4-0.3 1.9-1.9 3-0.3-0.5-2.1-3.5-2.1-4.6 0l-1-1.1 3-0.5z"/>
</svg>