<svg xmlns="http://www.w3.org/2000/svg" viewBox="0 0 200 127">
<!-- SVG created with Arrow, by QuiverAI (https://quiver.ai) -->
  <style type="text/css">.cls-0 {fill:url(#SVGID_1_);}
.cls-1 {fill:none;stroke:#603913;stroke-width:0.5;stroke-linejoin:round;stroke-miterlimit:10;}
.cls-2 {fill:url(#SVGID_2_);stroke:#603913;stroke-width:0.5;stroke-linejoin:round;stroke-miterlimit:10;}
.cls-3 {fill:url(#SVGID_3_);stroke:#603913;stroke-width:0.5;stroke-linejoin:round;stroke-miterlimit:10;}
.cls-4 {fill:url(#SVGID_4_);stroke:#603913;stroke-width:0.5;stroke-linejoin:round;stroke-miterlimit:10;}
.cls-5 {fill:url(#SVGID_5_);stroke:#603913;stroke-width:0.5;stroke-linejoin:round;stroke-miterlimit:10;}
.cls-6 {fill:url(#SVGID_6_);stroke:#603913;stroke-width:0.5;stroke-linejoin:round;stroke-miterlimit:10;}
.cls-7 {fill:url(#SVGID_7_);stroke:#603913;stroke-width:0.5;stroke-linejoin:round;stroke-miterlimit:10;}
.cls-8 {fill:url(#SVGID_8_);stroke:#603913;stroke-width:0.5;stroke-linejoin:round;stroke-miterlimit:10;}
.cls-9 {fill:url(#SVGID_9_);stroke:#603913;stroke-width:0.5;stroke-linejoin:round;stroke-miterlimit:10;}
.cls-10 {fill:url(#SVGID_10_);stroke:#603913;stroke-width:0.5;stroke-linejoin:round;stroke-miterlimit:10;}</style>
  <radialGradient id="SVGID_1_" cx="100" cy="63.5" r="103.2" gradientUnits="userSpaceOnUse">
    <stop stop-color="#FFF7EA" offset="0"/>
    <stop stop-color="#FEF5E6" offset=".5754"/>
    <stop stop-color="#F5E8D2" offset=".9944"/>
  </radialGradient>
  <path class="cls-0" d="m183.4 0.2h-166.8c-7.5 1.7-14.3 7.2-16.6 14.6v97.4c2.4 7.4 9.7 13.2 18.4 14.8h164.1c9.5-1.3 17.5-9.2 17.5-18.8v-91.5c-2.1-8.2-8.6-14.8-16.6-16.5z"/>
  <path class="cls-1" d="M 19.5,0 C 11.1,0.5 2.6,6.6 0,14.8"/>
  <path class="cls-1" d="m181.2 0c7.7 0.9 16.6 7.1 18.8 16.1"/>
  <path class="cls-1" d="m19.1 127c-8.5-0.7-16.8-6.9-19.1-16.3"/>
  <path class="cls-1" d="m181.6 127c9-1.5 17-8.6 18.4-17.5"/>
  <linearGradient id="SVGID_2_" x1="6.008" x2="44.37" y1="35.6" y2="35.6" gradientUnits="userSpaceOnUse">
    <stop stop-color="#935624" offset="0"/>
    <stop stop-color="#C48E30" offset="1"/>
  </linearGradient>
  <path class="cls-2" d="m23.1 12.3c2.1-3.6 7.8-6 11.7-5.9 5.5 0.1 10.6 3.2 9.4 4.9-0.9 1.1-2.3-1.3-5.7-2.4-5.6-2-11.5-0.3-14.6 3.6l-0.8-0.2zm-13.7 15.1c-2.5 1.8-4.6 5.7-4.4 9.9 0.3 5.3 4.4 9.8 5.3 9.3 1.8-1.1-2.2-2.4-3.3-6.3-1.8-5.7 1.4-9.5 3.5-11.4l-1.1-1.5zm21.7-9.2 0.1 0.4c4.8 0.4 7 6.4 2.9 11.1-1.3 1.6-3.5 2.3-4.4 2.8l0.4 0.4c1.8-0.9 3.5-1.6 4.2-2.5 4.6-5.4 2.2-11.6-3.2-12.2zm-11.9 11.6c2.6 2.7 3.3 7.2 1.8 9.5 1.7-6-7.9-7.8-7.7-1.6 0.1 2.5 3.6 8.2 1 13.9-3.4 4.9-5.7-4.8-7.5-1.1-0.5 1.1-0.4 3.6-0.4 5v17.9c0 2.3 0.3 6.2 2.3 3.8 1.1-1.3 3.4-4.9 5.7-2.7 1.7 1.5 2.7 4.9 0.8 9.9-0.6 1.7-1.9 3.7-1.3 5.9 1.3 4.1 7.3 3.2 7.2-0.4 0.7 1.7-1.3 6.4-3.5 7.8l1.2 0.2c3.3-3.3 7.3-8.3 1.3-11.9 1.3 3.4-2.8 8.4-5.8 4.9-1.9-3.2 1.3-5.8 1.6-10.4 0.3-3.9-1.8-7.1-3.8-6.9-1.7 0.1-2.4 1.6-3.2 1.7-0.7 0.1-0.5-1.5-0.5-2.6v-19.1c0-3.1 3.2 1.5 5.5-0.6 3-2.7 1.7-8.5 0.7-11.4-4-10.1 6.4-10.3 6.8-3.7l-2 3.1c5.5-1.9 4-8.5-0.2-11.2z"/>
  <linearGradient id="SVGID_3_" x1="21.15" x2="30.78" y1="29.97" y2="29.97" gradientUnits="userSpaceOnUse">
    <stop stop-color="#935624" offset="0"/>
    <stop stop-color="#935D17" offset="1"/>
  </linearGradient>
  <path class="cls-3" d="m21.1 25c2.3 2.7 5.8 8.1 7.5 10.9 1.4 2.1 4.1-0.3 1.6-2.6l-9.1-8.3z"/>
  <linearGradient id="SVGID_4_" x1="5.6" x2="25.56" y1="20.88" y2="20.88" gradientUnits="userSpaceOnUse">
    <stop stop-color="#E3B648" offset="0"/>
    <stop stop-color="#935624" offset="1"/>
  </linearGradient>
  <path class="cls-4" d="m21.2 24.9c-0.8-4-1.4-11.9 0.7-15.9 1.8-1.4-0.3 2.5 1.8 4.1 3.4 0-0.1 2.3 0 5.4 0 1.6 2.9-1.6 1.4 1.5-2 3.6 1.6 5.4-0.5 6l-3.4-0.9c2.8 8.5-1 3.5-3.8 5.5l-0.7-1c-5.1 1.9-3.6-0.2-4.1-1-2.5 1.3-2-0.2-2.6-0.9-0.8 0.9-1.1-2.3-3.2-2.2-3.1 0.2-0.2-2 2.3-2.9-1-1.9 0.8-2 4-1.2 0.6-0.7-5.1-2.8-3.2-4 1.2-0.8-2.7-5.4 0.7-4.2 3.3 1 2 1 3.1 0.3 0.9-0.8 3.7 4.1 3.7 2.9-0.3-5.7 1.2-3.8 1.5-4 0.7-1 3-3.5 3.2-3.4-1.5 5.1-1 11.9-0.9 15.9z"/>
  <linearGradient id="SVGID_5_" x1="25.97" x2="33.37" y1="20.75" y2="20.75" gradientUnits="userSpaceOnUse">
    <stop stop-color="#743E16" offset="0"/>
    <stop stop-color="#794718" offset="1"/>
  </linearGradient>
  <path class="cls-5" d="m26.6 19.6c-1.5 4.9 2 10 5.5 7.8 3.1-2 0.8-6.3-1.2-4.4-2 3-6-0.4-3.2-5.1l-1.1 1.7z"/>
  <linearGradient id="SVGID_6_" x1="22.8" x2="30.78" y1="20.6" y2="20.6" gradientUnits="userSpaceOnUse">
    <stop stop-color="#603913" offset="0"/>
    <stop stop-color="#794718" offset="1"/>
  </linearGradient>
  <path class="cls-6" d="m22.8 12.1c1.8-2.9 6.9-5.7 11.6-5.9 5-0.1 11 2.9 10 4.9-0.8 1.4-2.2-1.5-6.9-2.7-5.4-1.4-11.1 0.6-13.9 4.3l-0.8-0.6zm3.8 6.3c1.3-2.8 4-4.9 7.8-4.9 4.5 0 8.7 3.5 13.5 3.4 4-0.2 6-3.3 3.7-5.8-1.7-2-4.7-2.9-4.5-4.9 0.4-1.6 2-1.6 4.5-1.6h98.3c1.7 0 3 0.4 3 1.8-0.3 2.2-5.8 3-5.7 7 0.2 3.1 3.9 4.1 6.4 3.7 4.3-0.6 7.6-3.4 11.8-3.2 8 0.2 11 10.5 5.5 13.1-4.3 1.7-6.5-3.4-3.3-4.6 1.5 0 1.8 2.5 3.8 0.2 2.7-3.6-1.9-8.7-6.5-8.5-3.5 0.1-7.2 2.6-11.5 3-3.4 0.3-7-1.6-6.3-4.7 0.5-1.9 2.4-4.4 2.1-5l-0.8-0.4h-96.8l-0.9 0.2c-0.3 0.8 3.7 4.5 1.9 7.8-1 1.6-3.5 2.6-5.7 2.4-4.3-0.3-8.2-3.5-12.3-3.5-3.5 0.1-6.2 1.8-7.4 4.8l-0.6-0.3z"/>
  <linearGradient id="SVGID_7_" x1="47.45" x2="152.9" y1="63.5" y2="63.5" gradientUnits="userSpaceOnUse">
    <stop stop-color="#794718" offset="0"/>
    <stop stop-color="#B17E32" offset=".5056"/>
    <stop stop-color="#794718" offset="1"/>
  </linearGradient>
  <path class="cls-7" d="m23.4 114.7c2 3.9 7.2 6.8 12.8 6.2 5.4-0.7 9.5-3.4 8-4.9-0.8-0.8-1.6 0.9-5.2 2.2-5.4 2.2-11.1 1.2-14.9-3.6l-0.7 0.1zm7.8-6.1 0.2 0.1c4.5-0.3 7.1-5.8 3.7-11-1-1.5-2.7-3.1-4.5-4l-0.4-0.1c1.2 1 2.9 1.5 3.9 3 3.4 4.3 1.6 10.9-3 11.5v0.5zm-8.1-7.5c2.5-1.5 0.3-4.5-1.7-4.7-1.8-0.2-3.3 0.8-3.8-0.8-1.2-0.5 0.1 1.5-3.9 0.3-1.8-0.4 0 1.7-2.1 1.3l-0.7-0.1-0.4 1-1.3 0.3c-0.1 3.1-3.2 2-3.3 2.3-0.2 0.5 2.8 2.7 3.5 2.9-1.3 1.9 1.7 2.5 3.8 2.1 1.5-0.1-4.5 2.7-3.3 3.8 1.7 1.1-0.9 3.7 0 4.6 0.7 0.3 3.5-0.7 3.5-0.7 1 1.8 2.2 0 3.7-1.9 1.5-2.4-1 5 1.8 3.5 1 1.7 4 4.7 3.5 2.9-0.3-4 1.7-3.3 2.3-4 1-0.8-1.7-4.9-0.7-5.5 3.7 0.7 0.1-2 0.9-4.3l0.7-2.5-0.5-0.7-2 0.2zm24 19.3c0.4 1.6 2.4 1.6 4.5 1.6h98.1c4.7 0.1 4.5-2.5 2.4-3.8-2.7-1.7-5.5-3.6-3.9-6.3 1.2-1.7 3.4-2.4 5.2-2.3 4.2 0.4 7.7 3.9 12.3 3.9 7.2-0.1 10.5-8.8 6.9-13.5-3.4-3.4-7.9-0.1-5.2 3.7 2.1 1.3 2.1-1.8 4.2-0.6 2.8 2.6 0 10-6.2 10.1-4.3 0-7.8-3.6-12.5-3.6-3.3 0-7.2 2.4-5 6.4l1.5 2.6-0.2 0.5h-97.6l-0.9-0.1 0.2-0.8c1-1.6 3-3.6 1.2-6.2-1-1.4-3.2-2.5-5.5-2.3-4.5 0.3-8.1 3.5-12.6 3.7-7.9 0.1-10.4-10.3-5.9-13.4 3.8-2.4 7.1 2.1 4.3 4.4-1.5 0.3-1.8-2.3-3.8-0.8-3.2 3.3 1.4 9.5 6 9.5 4 0 7-2.4 11.1-3.2 4.9-0.9 8.2 2.5 6.7 5.1-1.3 2.5-5.9 3.2-5.3 5.4z"/>
  <linearGradient id="SVGID_8_" x1="155.4" x2="195" y1="35.6" y2="35.6" gradientUnits="userSpaceOnUse">
    <stop stop-color="#794718" offset="0"/>
    <stop stop-color="#935D17" offset="1"/>
  </linearGradient>
  <path class="cls-8" d="m176.9 12.5c-1.7-3.5-6.8-6.1-10.8-6.3-5.5-0.2-11.4 2.9-10.6 4.9 0.9 1.4 2.1-0.7 4.7-1.9 5.5-2.2 10.2-1.3 14.2 1.4l2 2.1 0.5-0.2zm13.3 14.9c2.4 2 4.9 5.6 4.7 10.5-0.2 4.7-4.3 9.7-5.3 9-1.5-1 2.3-2.4 3.5-6.9 1.3-5-2-9.4-4-11l1.1-1.6zm-12.1 2.3c-2.5 1.9-3.7 6.7-1.2 9.4l3.5 1.8-0.2-0.4c-1-5.8 6.9-9.4 5.5-1.4-0.7 2.8-3.3 7.1-0.8 12.8 3.7 5.7 6.7-3.3 8.2-2 1 1 0.8 4.1 0.8 6.1v17.9c0 2.5-0.3 5.2-2.3 3.6-1.4-1.1-3-3.9-5-3.3-1.7 0.5-3 3.3-2.5 6.9 0.5 3.9 2.6 6.5 2.1 9-1 4.3-7.6 4-7.3 0.9-1.5 1.7 1.7 5.9 2.5 6.6l-1 0.3c-2.8-2.5-7-8.5 0.2-11.9-1.5 3.2 2.3 8.1 5.1 5 2.2-2.4-1.3-6.4-1.6-10.6-0.2-3.8 2.1-7 4-6 1.3 0.3 3.5 2.2 3.5 0v-20.7c0-3.6-2 1.2-5 0.3-2.7-0.6-4-5.4-2.2-10.6 0.6-2.3 2.5-5.8 1-8.4-2-2.9-7-1.9-7.2 1 0.2-1.8 2.4-5.3 3.2-6.3h-3.3z"/>
  <linearGradient id="SVGID_9_" x1="168.6" x2="179.2" y1="29.97" y2="29.97" gradientUnits="userSpaceOnUse">
    <stop stop-color="#CE9E3A" offset="0"/>
    <stop stop-color="#935D17" offset="1"/>
  </linearGradient>
  <path class="cls-9" d="m179.2 24.6c-2.1 2.3-5.1 7.6-7.3 10.4-0.8 1-1.7 2.4-2.8 1.2-2.5-2.8 3.1-5.3 5.5-7.3l4.6-4.3z"/>
  <linearGradient id="SVGID_10_" x1="174.6" x2="194.2" y1="19.41" y2="26.92" gradientUnits="userSpaceOnUse">
    <stop stop-color="#935624" offset="0"/>
    <stop stop-color="#E3B648" offset=".4011"/>
    <stop stop-color="#CE9E3A" offset="1"/>
  </linearGradient>
  <path class="cls-10" d="m179.2 24.6c1.7-3.5 7-10.6 10.7-11.5 1.5 0.5-1.7 3.4-0.5 3.8 2.2 1.7-4.8 3.7-2.5 4.2 4.5-0.6 4.5 0.8 3.7 1.8 2 0.5 4.8 2.6 3.5 2.6-3.5-0.4-3.5 2.2-4 2.1l-1 0.1 0.1 1.2-3-0.3c0.2 2.3 0 2.1-2.8 1.1l-0.3-0.1v-0.2 0.2l-0.2-0.2 0.2 0.2-0.2-0.2h-0.3l-0.4 0.2-0.3 1c-1.9-1.7-4.5 0.3-4-1.5l1.3-4.5c-3.5 1.8-5.5 1.3-4.6 0 2.3-3.5-3-6.6 1.5-6 0.5-1-2.5-5.1-0.5-5.4 2.6 0.2 1.1-5.6 2.5-4l1.3 1.4 1.8 2c2.4-1.2 0.7 4 1.4 3.8 0.8-0.4 2.5-4.4 3.6-2.8l0.7 0.4c2.3-1.1 4-1.4 3.2 0.4l-1 2.2 0.5 0.5c1.3 1-1.9 2.3-3 3.5-1.4 1 4.6-0.5 4 2l0.3 0.3c1.5 0.2 4.2 2.6 3.2 2.6-2.9-0.5-3.5 2.2-4 2.1l-1 0.1 0.1 1.2-3-0.3c0.4 2.3 0 2-2.8 1.1l-1.2-0.3-0.3 1.2c-1.5-1.5-4-0.2-3.8-1.2l1.1-4.8z"/>
  <linearGradient id="SVGID_11_" x1="155.5" x2="195.1" y1="106.2" y2="106.2" gradientUnits="userSpaceOnUse">
    <stop stop-color="#935D17" offset="0"/>
    <stop stop-color="#CE9E3A" offset="1"/>
  </linearGradient>
  <path d="m176.7 114.4c-2.1 4-7.1 6.5-11.6 6.5-4.2 0.1-11-2.7-9.4-4.9 0.7-0.8 1.5 0.9 5.5 2.2 5.4 2 11.7 0.8 14.9-3.8h0.6zm2.4-13.8c-1.2-2-3-5.1 0.5-4.5 1.8 0.3 2.5-1.2 3.3 0.5 4.2-1.5 4.2-1.2 4.2 0.5l2-0.2v1.2l1.3 0.1c0.5 3.2 4 1.5 4 2.5-0.3 0.8-3 2.7-3.8 2.9 1.5 2.3-3.5 2.1-4.2 1.8-1.3 0 2.5 2.2 3.2 3.6 0.3 0.7-1 1.1-0.5 2.1 2.3 4.5-0.5 3-2.5 2.3-0.7-0.2-0.4 1.3-1.7 0.5l-2.5-3c-0.8-1.4 1.2 4.6-1.2 4-0.6-0.2-0.8 1.5-2.6 3-2.4 2.1-0.5-0.9-2-3.3-0.7-1.2-2.2 0.4-1.2-2 2.7-6.5-2.2-2.2-0.8-5.5 2.6-4-1.5-5.9 0.8-6.9l3.7 0.4z" fill="url(#SVGID_11_)" stroke="#603913" stroke-linejoin="round" stroke-miterlimit="10" stroke-width=".5"/>
</svg>