<svg xmlns="http://www.w3.org/2000/svg" viewBox="0 0 180 113">
<!-- SVG created with Arrow, by QuiverAI (https://quiver.ai) -->
  <style type="text/css">.cls-0 {fill:#FEF4E8;}
.cls-1 {fill:#987042;stroke:#6A4821;stroke-width:0.3707;}
.cls-2 {fill:#B89162;stroke:#6A4821;stroke-width:0.3707;}
.cls-3 {fill:url(#SVGID_1_);stroke:#6A4821;stroke-width:0.3707;}
.cls-4 {fill:url(#SVGID_2_);stroke:#6A4821;stroke-width:0.3707;}
.cls-5 {fill:url(#SVGID_3_);stroke:#6A4821;stroke-width:0.3707;}
.cls-6 {fill:url(#SVGID_4_);stroke:#6A4821;stroke-width:0.3707;}</style>
  <rect class="cls-0" width="180" height="113"/>
  <path class="cls-1" d="m150.8 108.6c-0.9-0.9-2.5-3.6 2.2-4 2.8-0.1 6.6 2.1 9 1.4 2.2-0.5 3.5-3.6 1.7-4.9 1.4-0.5 2.4 1 2.4 1l0.2-1.3c-1.2-2-5.4-2.4-5.6 0.2 0.1 1.6 1.6 1.9 2.1 0.9 1.7 0.2 2 4.7-2.6 4.3-2.7-0.2-5.4-1.7-7.5-1.5-3.1 0.2-3.7 2.5-1.4 3.8 1.5 0.9 1.8 2.1-1 2.1h-119.9c-3.6 0-3.3-1.1-1.9-2.1l0.7-0.8 122.4 0.9h-0.8z"/>
  <path class="cls-1" d="m28.9 4.5c0.9 0.9 2.8 3.2-0.8 4-2.7 0.5-5.6-1.5-9.3-1.6-2.8 0.1-5.3 3.8-2.7 5.4-1.4 0.5-2.7-0.9-2.7-0.9l-0.1 1.3c1.4 1.4 5.3 2.2 5.8-0.4 0.6 0.6 0 1.6-1.7 1.6-4 0-4.3-2-4.3-2l-0.1 0.9c1.2 1.1 6.3 2.5 6.2-0.9-0.2-1.6-1.6-1.9-2-0.8-1.8 0-2-4.2 2.1-4.2 2.6 0 5.5 1.6 7.6 1.6 3 0 3.9-1.9 1.6-3.6-1.4-1.2-1.1-2.3 1.9-2.2h119.8c3 0 2.7 1.1 1.2 2.2l-0.5 0.7-122.9-0.8 0.9-0.3z"/>
  <path class="cls-2" d="m12.4 4.9c1.4-1.7 6.5-5.1 11.7-1.7 1.9 1.1 1.3 2.3 0 1.5-3.3-2-6.7-2.8-10.8 0.2-0.4 0.5-1.2 0.5-0.9 0z"/>
  <path class="cls-2" d="m3.9 13.5c-2 2.1-4.4 6.8-0.4 11.7 0.8 1.2 1.8 0.3 0.8-1-1.7-2.5-2.5-7.3 0.7-10.3l-1.1-0.4z"/>
  <path class="cls-2" d="m11.9 14.9c1.6 2.2 0.8 5.5-1.4 5.5-0.7 0 0.1-1.8-1.4-2.7-1-0.5-2.7-0.6-2.3 1.9 0.5 2.9 2.3 5.5 1.6 8.5-0.4 2.2-2.4 3.3-3.3 1.5l0.9 0.3c1 1.1 2.5-0.1 2.3-3.3-0.4-2.6-3-6.9-1.4-9s4-1 4.3 0.2c0-1.4-1.6-2.9-1.6-2.9h2.3z"/>
  <path class="cls-2" d="m12.7 107.9c2.2 2.4 7 5 11.7 1.8 1.5-0.9 0.9-2.2-0.5-1.2-1.6 0.9-6.1 3.3-10.5-1l-0.7 0.4z"/>
  <path class="cls-2" d="m4.6 99.1c-2.3-2.7-2.7-7.3 0.2-11.4 0.3-1.4-0.8-1.7-1.5-0.4-2.2 2.6-3.2 7.3 0.6 12.2l0.7-0.4z"/>
  <path class="cls-2" d="m10.7 98.1c1.6-2 2.7-4.8 0.5-6.6-0.6-0.3-1.1-0.1-1.1 0.7-0.5 2.1-3.9 3.7-3.5-0.5 0.7-3.4 3.4-7.8 0.3-9.9-0.9-0.4-1.4 0.5-1.4 0.5l0.7-0.4c1.6-0.5 2.8 1.5 2 4.6-0.9 2.9-2.7 6-1.1 8.1 1.8 2 3.7 0.7 4.1-0.4 0 1.4-1.6 3.3-1.6 3.3l1.1 0.6z"/>
  <path class="cls-2" d="m13.4 101.5c1.4-1 2.5-1.4 2.9-1-2.2 1.9-0.4 5.2 2 5.8 3.5 0.5 6.9-2.2 9.6-1.5 2.2 0.4 2.7 2.2 1.3 3.3l-0.8 0.7-0.1-0.3c2.9-2.2 0.9-4.4-2.8-3.7-2.7 0.7-5.4 1.9-7.3 1.1-1.7-0.6-2.8-3.4-0.8-4.2 1.6 1.9 2.5 0.1 1.7-1.5-1-1.6-4.2-2-6.5 0.4l0.8 0.9z"/>
  <linearGradient id="SVGID_1_" x1="3.796" x2="14.17" y1="8.745" y2="8.745" gradientUnits="userSpaceOnUse">
    <stop stop-color="#A66F29" offset="0"/>
    <stop stop-color="#DEB13D" offset=".5337"/>
    <stop stop-color="#C9993C" offset="1"/>
  </linearGradient>
  <path class="cls-3" d="m11.2 1.6c-0.3-0.3-1.7 1.7-2.1 2.2h-0.6c-0.6 0.7 0.1 2.5-0.1 2.5l-1.6-1.8-0.8 0.3-2.1-0.8-0.1 0.1c0 1 0.8 2.3 0.6 2.9-0.8 0.7 1.5 1.9 1.7 2.5l-2.6 0.1v0.8c-1.2 0.3-1.9 1.2-1.9 1.6 1.7 0 2.3 1.7 3.3 2l-0.1 0.4h1.6l-0.2 0.9c0.4 0.7 2.4-0.4 3-0.4l0.4 0.3 1.7-0.3v0.2h0.1c0.3 0-0.2-2.5-0.2-2.5 0.7 0 2.3 0.4 2.3 0.1-0.6-2.3 0.6-3.6 0.4-5h-0.9l0.4-1.8-1-1.1c-1.5-1-1.2-1.8-1.2-3.2z"/>
  <linearGradient id="SVGID_2_" x1="3.73" x2="11.47" y1="103.3" y2="103.3" gradientUnits="userSpaceOnUse">
    <stop stop-color="#935517" offset="0"/>
    <stop stop-color="#965E1C" offset="1"/>
  </linearGradient>
  <path class="cls-4" d="m6.4 97.2-0.4 0.1-0.1 1.1-1.5-0.2c-0.3 1.1-1.1 2.4-2.6 2.5l-0.1 0.3c0.5 0.9 1.3 1.4 2.1 1.6v0.7c0.6 0.6 2.3 0.3 2.3 0.3l-2 1.7 0.3 1-0.6 2.5 0.1 0.2 2.5-0.7 0.6 0.3 1.6-1.9c-0.1 0-0.5 2.5 0.5 2.5h0.4c0.3 0.9 1.4 2.3 1.4 2.2-0.3-1.7 1.2-2.9 2-3.3l0.2-1.5 0.7-0.7c0.3-0.4 0.1-0.7-0.7-0.7 1.4-0.4 0-2.2 0.3-3.3l0.1-1.4-2.2-0.1 0.1-2.5-0.2-0.4h-2.1l-0.6 0.2-2.1-0.5z"/>
  <path class="cls-2" d="m11.2 100.4 4.7-5.9c1.3-1.9 2.7-0.4 1 0.8l-5.7 5.1z"/>
  <path class="cls-2" d="m11.2 12.2 5.9 4.9c1.4 1.1-0.2 2.5-1.1 1.1l-4.8-6z"/>
  <linearGradient id="SVGID_3_" x1="169" x2="173.2" y1="108.4" y2="101.1" gradientUnits="userSpaceOnUse">
    <stop stop-color="#DEB13D" offset="0"/>
    <stop stop-color="#B67F30" offset="1"/>
  </linearGradient>
  <path class="cls-5" d="m168.6 100.4-1.6-0.2-0.6 0.3 0.4 1.9-0.4 0.4c0.2 1.3-1.4 3.1 0.6 2.7 0.1 0.8-0.8 1.5-0.2 1.9l0.9 0.9c1.2 0.5 1.3 1.6 1.2 3.1 0.7 0 1.7-1.7 2-2.2l0.7-0.2c0.5-0.5 0-2.3 0.2-2.3l1.8 1.9 0.7-0.3 2 0.7 0.2-0.2-0.7-2.2 0.5-1.1-2-1.9c0.1-0.3 2 0.3 2.3-0.6v-0.4c0.9-0.2 1.5-0.7 1.9-1.6l-0.1-0.3c-1.5 0.2-2-1.2-2.7-2.1l-1.7-0.2-0.1-1.2-0.4-0.1-1.9 0.6-0.7-0.2-2.3 0.2h-0.2l0.2 2.7z"/>
  <path class="cls-1" d="m6 81.9c-0.7 1.6-1.6 1.2-1.6-0.1v-51.5c0-1.5 1.3-1.5 1.8 0l-0.2 51.6z"/>
  <path class="cls-2" d="m155.5 4.7c4.7-2.5 7.5-2.2 11.3 0.4l0.6-0.8c-2.6-2.4-7.3-4.5-11.9-1-1 0.7-0.5 1.8 0 1.4z"/>
  <path class="cls-2" d="m176.5 13.3-0.8 0.7c2.9 3.8 1.8 8.1-0.1 10.4-0.6 1.3 0.2 1.8 0.9 0.8 3.4-4.1 2.1-9.4 0-11.9z"/>
  <path class="cls-2" d="m168.9 14.9c-2.1 2.2-2.1 5.2 0 5.7 0.7 0.2 0.3-1.5 1.5-2.6 0.7-0.5 2.8-1.1 2.8 1.3 0 2.8-2.7 6.4-1.4 9.7 0.9 1.7 2.2 1.6 2.6 0.6l-0.7 0.3c-1 1.1-2.3-0.5-1.9-3.5 0.5-2.9 3.1-7.1 0.9-9.1-1.8-1.7-3.5-0.2-3.8 0.7 0-1.4 1.5-3.1 1.5-3.1h-1.5z"/>
  <path class="cls-2" d="m166.6 107.5c-3.1 2.8-7.1 3.5-10.5 1-1.4-1.1-1.9-0.2-0.3 1 3.9 2.5 8.6 2.5 11.6-0.9l-0.8-1.1z"/>
  <path class="cls-2" d="m175.8 99.5c2.6-2.3 4.6-8 0.7-12.6-0.9-1.1-1.6-0.2-0.9 0.8 2.6 4 1.9 7.8-0.4 10.7l0.6 1.1z"/>
  <path class="cls-2" d="m169.7 98.1-1.3-0.6c-1.2-2.2-1.6-5 0.5-6.1 0.6-0.2 0.8 0 0.8 0.8 0.2 2.3 3.8 3.9 3.8 0-0.3-3.4-3.6-8.3-0.8-10.5 1-0.5 1.7 0.6 1.7 0.6l-0.7-0.4c-1.6-0.7-2.8 1.5-1.6 5 1.1 3.2 2.3 5.6 0.4 7.7-1.9 1.8-3.6 0-3.6-0.9-0.3 1.8 0.8 4.4 0.8 4.4z"/>
  <path class="cls-1" d="m174.4 30c0.5-1.3 1.7-1.3 1.5 0.3v51.5c0 1.6-1.2 1.7-1.5 0.1v-51.9z"/>
  <linearGradient id="SVGID_4_" x1="167.9" x2="176.9" y1="9.251" y2="9.251" gradientUnits="userSpaceOnUse">
    <stop stop-color="#C19431" offset="0"/>
    <stop stop-color="#7D4418" offset="1"/>
  </linearGradient>
  <path class="cls-6" d="m169.2 1.6 1.4 2.1 0.8 0.1c0.7 0.9 0 2.5 0.4 2.5l1.8-1.9 0.8 0.3 2.1-0.9 0.1 0.3-0.7 2.2 0.4 1-1.9 2.2c0 0.1 2.5-0.6 2.5 0.5v0.4c1.2 0.3 1.5 1.1 1.6 1.5l-0.1 0.1c-1.5 0-1.9 1.7-3.2 2v0.5h-1.5l0.2 1h-0.4l-2.1-0.4-0.8-0.2-2 0.2v0.1-0.1c-0.4 0 0-2.5 0-2.5h-1.8-0.2l0.2-1.9-0.7-3.1h0.9l-0.2-1.7 0.9-0.5c1.5-1 1.3-1.7 1.5-3.8z"/>
  <path class="cls-2" d="m167.2 12c-0.6 1.1-4.3 3.1-6.1 1.3-1.1-1 0-3.3 1.5-2.1l0.4 0.4c1.4-0.5 1.4-3.1-0.8-4.2 2.4 0.7 3.6 4.1 1.3 5.2 1.5 0.2 3.1-1.4 3.1-1.4l0.6 0.8z"/>
  <path class="cls-2" d="m168.6 12.6-4.2 5.4c-1.4 1.9-2.5 0.6-1.4-0.4l5.6-5z"/>
  <path class="cls-2" d="m168.6 100.5-5.1-4.8c-1.7-1.1-0.3-3.1 1.1-1.1l4 4.7v1.2z"/>
  <path class="cls-2" d="m155.5 8.4c2.2-0.6 5.1-1.8 6.7-1-2.4-0.8-5.5 1-8.2 1.2-2.6 0.3-5.4-0.9-3.1-3.2l0.2-0.2h0.5c-2.3 2.2-0.6 3.9 3.9 3.2z"/>
  <path d="m3.9 4.4 7.4 7.9" fill="none" stroke="#6A4821" stroke-width=".3707"/>
  <path d="m175.9 4.5-7.3 8.1" fill="none" stroke="#6A4821" stroke-width=".3707"/>
  <path d="m176.5 109-7.9-8.5" fill="none" stroke="#6A4821" stroke-width=".3707"/>
  <path d="m3.9 108.8 7.4-8.3" fill="none" stroke="#6A4821" stroke-width=".3707"/>
</svg>