<svg xmlns="http://www.w3.org/2000/svg" viewBox="4.8 516.7 299.1 23">
<!-- SVG created with Arrow, by QuiverAI (https://quiver.ai) -->
  <style type="text/css">.cls-0 {fill:#B18741;stroke:#846537;stroke-width:0.5;}
.cls-1 {fill:#D2BA8C;stroke:#6A502E;stroke-width:0.5;}
.cls-2 {fill:#EEE1CA;stroke:#6A502E;stroke-width:0.5;}
.cls-3 {fill:none;stroke:#816232;stroke-width:0.4;}
.cls-4 {fill:#CDB78B;stroke:#6A502E;stroke-width:0.3;}
.cls-5 {fill:none;stroke:#846537;stroke-width:0.4;}</style>
  <path class="cls-0" d="m295.2 526.4c2.5 0 6.8-1.4 6.8-5.4 0-3-3.5-4.6-5.5-2.6s0.5 4.7 2.1 3.5"/>
  <path class="cls-0" d="m259.1 519.1c5.5-2 9.9 2.3 9.9 6.9 0 5-4.4 10.4-12.1 11 8.1 3 13.4-5.3 17.1-9 5-5.3 10-5.4 15.1-3l0.5-0.3c-8-3.8-12.6-1.7-16.6 2.3s-8 10-15 10.5v0.5h20c5.5 0 5.5-5 3.5-6-1.5 2.2-0.5 5-4 5h-10.5c3.5-2 5.5-5 10-5 5 0 4.5 2.5 8.5 4.7 2.5 1.8 7.2 2.4 9 0.5-5 2-7.5-1-11.9-3.5-3.6-4.7-10.1-1.8-8.6-1.7 2.9-3 6.5-6 11.5-6-5 2-3 7.5 1.5 7.5 3 0 5.5-4.5 2.5-5.5-2.5-0.1-3.1 2.5-2 2.5l1-0.5v-1m6.5-4.5c-3.5 0-4.3-6-9.9-6h-25.5c-1.6 0-1.1 0.5-0.5-0.5 0.4-0.5 0.9-0.5 2.4-0.5h24c6 0 4 6.5 9.5 7z"/>
  <path class="cls-0" d="m287 525.5c2.6 0.4 6 1 8.2 0.9"/>
  <path class="cls-0" d="m257.5 537.3c-2-0.3-5-1.8-6-4.3l-0.5 2-0.9-1.7c-0.6 1.7-4.6 4.2-6.1 4.3 5.5 0.1 11.5 0 13.5-0.3z"/>
  <path class="cls-0" d="m261 517.6h-1.4l-0.8 0.9 0.8 0.6c1.4-0.6 1.4-1.5 1.4-1.5z"/>
  <path class="cls-0" d="m241 517.4h-31.1l-1.3 0.6-0.1 0.9 1.5 0.1c4.5-2.5 8.6 1.6 8.5 6.4-0.2 5-5.5 10.1-12.5 10.6 7 3 12.5-2.5 19-10l0.5-0.5 0.4-0.5h0.1l0.4 0.5 0.5 0.5c6.6 7.5 12.1 13 19.1 10-7-0.5-13-6-13.5-10-0.5-6 4.5-9.5 8.5-7.5h1v-0.5l-1.1-0.5zm-6.6 1.6h-18.8c4.4 3 6.9 9.5 1.4 14 3-2 6.5-5.5 8.9-7.6l0.1-0.1 0.1 0.1c2.4 2.1 5.9 5.6 8.9 7.6-5.5-4.5-5-11-0.6-14z"/>
  <path class="cls-0" d="m209.5 537.5c8 1 11.5-1.5 18.5-8.5l4.5 4c3 2.5 5.2 5 10.5 4.5v0.5h-33l-0.5-0.5z"/>
  <path class="cls-5" d="m217 538c3.5-0.5 6.5-5 9-5.5 2-1.5 5 0.5 8.6 4.5l0.9 1h-18.5z"/>
  <polygon class="cls-3" points="225 532 226 532 227 531"/>
  <path class="cls-0" d="m161.5 519c5-2.5 9.5 0.9 9.5 6.4 0 5-5 9.6-12 10.6 6.5 2.5 13-3 17.5-8l1-1 1 1c4.5 5 11 10.5 15.5 8.5-6-0.5-12-6-12.5-10.5-0.5-4 3-8 6-8 2-0.5 3.4 0.5 4 0.5v-1l-1-0.1h-27.5c-2 0.1-2.5 1.1-1.5 1.6zm7.1 0h2.2 13.6c-3.9 3-6.9 9.5-0.4 14l-6.5-6-0.5-0.5-0.5 0.5-6.5 6c5.5-4.5 2.5-11-1.4-14z"/>
  <path class="cls-0" d="m160 538 4 0.5c6.5 0 9-3 12.5-6l0.5-0.5 0.5 0.5c3.5 2.5 7 7 12 5.5l0.5 0.5-30-0.5z"/>
  <path class="cls-5" d="m168.5 538.5c3-1 4.5-2.5 8-5l0.5 0.5 0.5-0.5c3.5 2.5 5.5 4.5 7.5 5h-16.5z"/>
  <path class="cls-0" d="m189.5 537.5c-4.5 0.5-8 0-11.9-4.5l-0.6 1-0.6-1-2.9 2.5-3.6 2.1 7.1 0.4h8l4.5-0.5z"/>
  <path class="cls-0" d="m161.5 537.5c-2.5-0.5-4.9-1.5-6-4.5-1 2.5-4.5 4.5-6.5 4.6 3.5 0.4 7 0.4 12.5-0.1z"/>
  <path class="cls-0" d="m144.2 517.6h-28.2l-1 0.4-0.4 0.5 0.4 0.6c1.6-1.1 9-1.6 9 6.9 0 6-6.5 10-13 10.5 4.1 2 12-0.5 18-7.5l1-1 1 1c6.5 7 11 9.5 16 8-6.5 0-12.6-5.5-13-11-0.4-4 3.5-8.5 8.5-7.5l1.5 0.5 0.5-1-0.3-0.4zm-7.3 1.4h-15.8c3.4 2.2 5.9 7 2.4 12l-1 2 7.5-7 7.5 7c-4-5-4-11-0.6-14z"/>
  <path class="cls-0" d="m113.5 537.5c8 1 11.5-1.5 17.5-7.5 4.5 3.5 7 8.5 14.5 8h-32v-0.5z"/>
  <path class="cls-5" d="m122 538c3-0.5 5.5-3.5 8-5.5l1 1 1-1c2.5 1.5 4.5 4 6 5l-16 0.5z"/>
  <path class="cls-0" d="m13 521.5c0.5-4-3.5-5-5.2-3-1.8 1.5-1.9 7.5 5.2 8l6-0.6 0.5-0.9c-2.9 0.3-8.5 1.6-10.5-2-1.5-3 1.5-5.5 3-3.5 0.5 0 0.5 2.5-0.5 2-2-0.5 0.5 3.5 1.5 0z"/>
  <path class="cls-0" d="m48.5 517.5h-27.5c-5 0-6 5.5-10 5v1c3 0.5 5.5-2 6-2.5 2-2 4-2.5 6.5-2.5h19.5c-5.5 3.5-6.5 12 1.5 17l5 2h2l1-0.5c-6-0.5-12.5-5-13.5-10.5-0.5-5.5 4.5-10 9-7.5l1-0.5-0.5-1z"/>
  <path class="cls-0" d="m15.5 525.8c2.8 0 5.7-1.1 8.5 0.2 5 3 0 8-3.5 5-1.3-1-1-3.6 1-2 0 1 1.5 0.4 0-1-1-1-3 0.5-2.5 2 2.5 6 8.5 2 6-2l-2-2c9.6 0 13 9 18.5 11.5l4 0.5c-4.1-1.3-6.5-4-9.5-7-4-4.5-9.5-7.5-16.5-6 0 0-4 2-4 0.8z"/>
  <path class="cls-0" d="m25.5 535c-3.5 3.5-8.5 4.5-11 2.5 3 1 5.5 0.5 9-2l2.6-2.5 0.4 0.5-1 1.5z"/>
  <path class="cls-0" d="m23.5 534.5"/>
  <path class="cls-0" d="m24.5 533.5"/>
  <path class="cls-0" d="m26 534.5c-0.5 2.5 1 4 4 4h75.1l-0.3-1c-6.8 1.5-11.3-2.8-14.3-4.9l-9-6.6-4 3.8c-4 3.2-8 7.2-13.9 7.2l0.9 1h40.3l-3.8-0.5c-5.5 0.5-10-2-16-8l-3.5-3-5.5 5c-3.5 2.5-6 4.6-10 5l-2 0.5c-4.5-1-5-4-5-5 1.6 2 5 3.5 10 1 4-2.5 8.5-6 7.5-9-1-3.5-3.5-6.4-6.5-6.4-3.5-0.1-4-0.1-4 1.4 1-0.5 3-1 5 0 3.5 1.5 5.5 5.5 4 9-1.9 5-7 8.5-12.5 8-3.5-0.5-4.5-4-3.5-4.5l1-0.5c-2-0.5-4.5-0.5-4 0 1 2-2 5-5 5.5-8 0.5-11.5-5-16-9-7-6.5-12-4.5-16-2.5l-0.9 0.8h2c9.9-3.8 13.4 1.7 17.9 5.7 4.5 4.5 8 6 11.5 6v0.5h-20.5c-4.5-1-4.5-6.5 3.5-5.5l1-0.5c-3.5-2-8 0-8 2l0.5 0.5zm47.6-15.5h15.8c-4.4 3.5-5.4 8.5-1.4 13l-6.5-5.5-6.5 5.5c4-4.5 3-9.5-1.4-13z"/>
  <path class="cls-5" d="m74 538c2-0.5 5-3 8-5l6 4.5-14 0.5z"/>
  <path class="cls-0" d="m73.5 537.5c2.5-1.5 5.5-3.5 8-6.5l1.5 1.5c2 1.5 4.5 4.5 7 5h-16.5z"/>
  <path class="cls-0" d="m97 517.5h-30l-1 0.5v1l2-0.5h26c1-0.5 3 0.5 3 0.5l0.5-1-0.5-0.5z"/>
  <path class="cls-0" d="m96.5 537.5c-3.1 0.5-7 1-10.5-2l-4.5-3.5-5 3.5c-3 2-6.5 2.5-10 2l-1 0.5h31v-0.5z"/>
  <path class="cls-0" d="m52 537.5c2 0 5-1.5 6-4.5l0.5 1.5 1-1.5c0.5 1.5 3.5 4.5 5.5 4.5-3.5 0.4-11.5 1-13 0z"/>
  <path class="cls-0" d="m104.5 538h2.5 6c-3.5-1.5-5.1-3-6-5.5l-1 2-1-2c0 1.5-1.5 4-5 5.5h4.5z"/>
  <path class="cls-0" d="m203 538h4.5c-3.5-0.5-5.5-3-6.5-5l-0.5 1.5-1-2c-1 3-3 5-6 5.5h9.5z"/>
  <path class="cls-1" d="m55 517 2.5 0.9 1-0.9 1.5 1 1.5-1 1.5 1.5-2.5 2.5-2-1-2 1-2.5-2.5-1 1.5-0.5-1 1-2 1.5 0.5v-0.5z"/>
  <path class="cls-0" d="m57.5 518 1-1 1 1 1-1h1.5l1 1.5-2 2.5-2.5-2-2 2-2-2.5 1-1.5 1.5 0.5 0.5 0.5z"/>
  <path class="cls-1" d="m50.5 521-2.5 1 2 6.5 4 1.5 2.5-1-3-10c-2 0-2.5 1-2.5 1l-0.5 1z"/>
  <path class="cls-1" d="m64.5 520-0.5-1s-1.5 0.5-2.9 2l1.8 8.7 3.1-0.7 2.5-7v-1l-1.5-2-2.5 1z"/>
  <path class="cls-2" d="m57.5 520.5c-1.5 2.5-5.5 6.5 0 10h3c3.5-2.5 3.5-5 0.5-8.5l-1.5-2-1 1-1-0.5z"/>
  <path class="cls-0" d="m51 522h-2-0.5l-3.5 0.5c2 1.5 0 6 6.5 8h4c-4.5-1-4-5-4.5-8.5z"/>
  <path class="cls-4" d="m50 524-2-2-2.5 0.4c1.5 1.1 1 6.1 6.5 7.1h0.5c-1.5-1-2.5-3.5-2.5-5.5z"/>
  <path class="cls-2" d="m45.5 525.5-2.5 1c3 1 2 2.5 4.5 3.5l5.5 0.5-2.5-2c-2.5-1-2-3-5-3z"/>
  <path class="cls-2" d="m44 531.5c3-1.5 4.5 2 8 2 3 0 4-2 4-2l-2-1-5-1c-4 0-5 2-5 2z"/>
  <path class="cls-0" d="m65.5 522c2-0.5 3-0.5 5 0l-1.5 3.5-1.5 4.5-5.5 0.5v-1c3.8-2.5 2.5-5 3.5-7.5z"/>
  <path class="cls-4" d="m67.4 522.1 1.4-0.1v1c-0.8 1.5-0.4 5-3.8 6.5h-0.5c2-1.5 1.5-6 2.9-7.4z"/>
  <path class="cls-2" d="m73 526.5-2.5-1c-2.5 0.5-2.5 2.5-4 3.5l-2.5 1.5 5-0.5c2-1.5 2-3 4-3.5z"/>
  <path class="cls-2" d="m72 531c-3-1.5-5 2-9 2-2 0-3-1.5-3-1.5l2.5-1 4-1c3.5-0.5 5.5 0.5 5.5 1.5z"/>
  <path class="cls-1" d="m102 517 2.5 1 1.5-1 1 0.5 1.5-0.5 1.5 0.9 2-0.4-1.5 3.5-3.7-1-3.3 1-3-2 1.5-2z"/>
  <path class="cls-0" d="m102.1 517 2.2 1 1.2-1 1 1 1-1.5 1 1.5 1.5-1 1.5 0.5 1 1.5-2.5 2-3.5-2.5-2.5 2.5-3-2.4 1.1-1.6z"/>
  <path class="cls-1" d="m99 520.1-2 1.9 2 6.5 4 1.5h2.5l-2.5-10c-2-1-3.5-1-4-1v1.1z"/>
  <path class="cls-1" d="m112.5 520.5v-1.5s-1 0.5-3 2l1.5 8.5 3-0.5 2-7-2-3-1.5 1.5z"/>
  <path class="cls-2" d="m105.5 521c-3 4.5-4 6.5 0 9.5h3c4.5-3 2.5-6.5 0-10l-1 0.5-1-1-1 1z"/>
  <path class="cls-0" d="m99.5 522h-1.5l-3 0.5c2 2.5 0.5 6.5 7 8h2.5l-0.9-1.8c-3.1-2.2-2.1-4.2-4.1-6.7z"/>
  <path class="cls-4" d="m97.5 522c-1.5 0-1.5 0-3.5 0.3 2 1.7 1 5.2 5 6.7 0.5 0 1.5 0.5 2 0.5-3-2-2-5-3.5-7.5z"/>
  <path class="cls-2" d="m93.5 525.5-2.5 1c2.5 0.5 2.5 2.5 5 3.5h4l-3-2c-1-1-1-2-3.5-2.5z"/>
  <path class="cls-2" d="m91.5 530.9c3-0.9 3.5 2.1 7.5 2.6 3 0 4.5-2 4.5-2.5l-2.5-1-4-0.5c-2.5-0.5-5.5 0-5.5 1.4z"/>
  <path class="cls-0" d="m113.5 522 2.5-0.5c0.6 0.1 1.5 0.5 3 0.9-2 1.6-0.5 5.6-7 7.6l-2.5 0.5 0.5-1.5c3.5-2.5 2.5-4.5 3.5-7z"/>
  <path class="cls-4" d="m115.5 522h2l0.5 0.5c-1.5 1.5-1.5 5-4.5 6.5h-0.5c2-2 1.5-4.5 2.5-7z"/>
  <path class="cls-2" d="m120.5 526.5-2.5-1c-1.5 1-2 2.5-3.5 3.5l-2 1.5 4-0.5c2.5-1 2-3 4-3.5z"/>
  <path class="cls-2" d="m119.5 531c-3-1-4.5 2-8 2-2.5 0-3.5-2-3.5-2l1.5-1 3.5-0.5c2.5-1 6.5 0 6.5 1.5z"/>
  <path class="cls-1" d="m149 517.1c1.3 0.2 2 0.9 2 0.9l1.5-1 1 1.1 1.5-1.1 2.5 1.6-2 2.4-2.5-1-2 1-2.5-2.4 0.5-1.5z"/>
  <path class="cls-0" d="m150 517.1 2 0.9 1-1.4 1 1.4 2-1 1.5 2-2 2-2.5-2-2 2-2.5-2.6 0.5-1.3h1z"/>
  <path class="cls-1" d="m146.3 519-1.3 3c1 1 0 5.5 3.5 7.5l2 1 1.5-0.5-3-11c-1 0-2-0.4-2.7 0z"/>
  <path class="cls-1" d="m155.5 521 2-2h2c-1 3.5 1 8.5-4 11l-1-0.5 1-8.5z"/>
  <path class="cls-2" d="m151.3 521c-2.5 3.5-3.8 6 1.2 9.5h1.5c5-3.5 3-6.5 0.5-9.5h-1l-1-1-0.8 1h-0.4z"/>
  <path class="cls-0" d="m145.5 522c-1-0.5-2-0.5-4.5 0.5l2 4 2.5 3.5 4.5 0.5-0.7-1.5c-2.8-2.5-1.8-4.5-3.8-7z"/>
  <path class="cls-4" d="m143.4 522c-1.4-0.5-2.4 0.3-2.9 0 2 1 1 6 4.5 7.5h0.5c-1.5-2-1-6.5-2.1-7.5z"/>
  <path class="cls-2" d="m139 526.5h-0.5c2 0 2.5 2.5 4.5 3.5h3.5c-2.8-1-4-6-7.5-3.5z"/>
  <path class="cls-2" d="m139 531 0.5-0.5c2.5-2 5 0 7 0l4 0.5-0.5 1c-4 2.5-7.5-1-11-1z"/>
  <path class="cls-0" d="m159.5 522c1-0.5 3-1.4 6 0-2 1.5-1.5 6-5 8l-3 0.5v-1c3.5-3 1-5 2-7.5z"/>
  <path class="cls-4" d="m161.5 521.5 2.2 0.5c-1.2 2-0.7 5.5-3.2 7.5h-0.5c2-2 0.5-6 1.5-8z"/>
  <path class="cls-2" d="m167 526.5-2-1c-2.5 0.5-2 2.5-4 3.5l-2 1.5h3.5c2.5-1 3-3.5 4.5-4z"/>
  <path class="cls-2" d="m166.1 530.9c-2.6-1.4-4.6 2.1-8.1 2.1-3 0-3-1-3-1.5l3.5-1 3-0.6c3-0.8 5.5 0.1 4.6 1z"/>
  <path class="cls-1" d="m200 517 1.5-0.4 1 0.9 1.8-0.4 1.9 1.5-2.7 2.4-2-1-2 1-3.5-2.5 1.5-1.5 1.5 0.5 1-0.5z"/>
  <path class="cls-0" d="m196.5 517.1-0.5 1.9 3 2 2.5-2.5 2.6 2.5 2.4-2-1.5-2-3 1-1-1.5-1 1.5-1-0.5-2.5-0.4z"/>
  <path class="cls-1" d="m195 519h-2v2.5c2 1.5 0 6.5 4.5 8.5l1.7-0.5-1.7-9-1.5-1-1-0.5z"/>
  <path class="cls-1" d="m206 521 1-2h2l0.5 2-1.5 7.5-3 1.5h-1l0.5-1c2.5-3.5 0.5-5.5 1.5-8z"/>
  <path class="cls-2" d="m199 521c-2 3.5-4 6 1 9.5h2c3-1.5 4-5 1-8.5l-1.5-2-1 1-1-1-0.5 1z"/>
  <path class="cls-0" d="m194 522h-1.5l-2.5 0.5 1.5 4.5 4 3 2.5 0.5v-0.5c-3.5-2.5-3-6-4-8z"/>
  <path class="cls-4" d="m191.5 522-2 0.4v0.5c2 1.1 1.5 4.6 4.5 6.6h1c-2.5-3-2-5-3.5-7.5z"/>
  <path class="cls-2" d="m186.5 526.5 1-1c2-0.5 2.5 1.5 3.5 2.5l3 2h-3.5c-2-1-1.5-3.5-4-3.5z"/>
  <path class="cls-2" d="m187 530-0.5 1c3-0.5 4 2 7.5 2 2 0 4-2 4-2l-3.5-1c-2.5 0.5-5.5-1-7.5 0z"/>
  <path class="cls-0" d="m208 522c1 0 1-0.5 6 0.5-2.5 2-0.5 5-6.5 7.5l-2.5 0.5 0.5-1.5c3-2 1.5-5 2.5-7z"/>
  <path class="cls-4" d="m210 522c0.5-0.5 0.5 0 2.5 0v0.5c-2 1.5-0.5 4.5-4 7l-0.5-0.5c2.5-2 1-5.5 2-7z"/>
  <path class="cls-2" d="m215 526-2-0.5c-1.5 1-1.5 2.5-3 3.5l-2 1.5h3c2.5-1.5 2-4 4-4.5z"/>
  <path class="cls-2" d="m214 530c-3 0-4.5 2.5-8 2.5-1 0-3-1.5-3-1.5l3-1c1.5 0 5.5-1.5 8 0z"/>
  <path class="cls-1" d="m248.5 518v-0.5l0.5 0.5 2-1.5 1 1.5 2-1 1.5 1.6-2.5 2.4-2-1-2 1-2.5-2.4 0.5-1.6 1.5 1z"/>
  <path class="cls-0" d="m245.5 518.4 2 2.2 2.5-2.6 2 2.6 3-2.1-1.5-1.5-1.5 0.5-1 0.5-1-1.5-1 1.5-1.9-1-1.6 1.4z"/>
  <path class="cls-1" d="m243.5 519h0.5c-1.5 0 2 1 2.5 1.5l1 0.5c-1 4.5-0.5 7.5 1.5 9h-3l-3-2.5-0.5-4.5c-0.5-1 0.5-4 1-4z"/>
  <path class="cls-1" d="m253.5 521 2.5-2h1.5l0.5 3.5-1 5-2.5 2.5h-2c2-3 1-5.5 1-9z"/>
  <path class="cls-2" d="m249.5 521c-3.5 4-4.5 6 0 9.5h1.5c4-1.5 4-5 1.5-8l-1.5-2.5-1 1h-0.5z"/>
  <path class="cls-0" d="m242 522c-0.9-0.4-1.5 0-3 0.5l0.5 0.5 1.5 4c1.5 2 2.5 3 6 3.5l0.4-0.5-0.9-0.5c-2.5-3.5-1.5-5.5-4.5-7.5z"/>
  <path class="cls-4" d="m240.5 522h-2.1v0.4c2.1 1.1 1.1 4.6 5.1 7.1h0.5l-1-2-1.5-5-1-0.5z"/>
  <path class="cls-2" d="m237 526-1.6 0.5c3 0.5 2.6 2.5 5.1 3.5h3l-2.5-2c-1-1-1-2.5-4-2z"/>
  <path class="cls-2" d="m237.5 530-1 1 2 0.1c2 0 3 1.9 5.5 1.9s3.5-1 4.5-1.5l-3-1.5-4-0.5-4 0.5z"/>
  <path class="cls-0" d="m257.5 522 1.5-0.5 4.5 0.5c-2.5 1.5-0.5 5.5-6 8h-2.5l1.5-1.5c1-2.5 0-5.5 1-6.5z"/>
  <path class="cls-4" d="m259.9 522h2.1v0.5c-2 1-1.5 5-5 7l0.5-1c1.5-1.5 1-4.5 1.5-5.5l0.9-1z"/>
  <path class="cls-2" d="m265 526.5-2.5-1-2 2-1 2-2.5 1h3c2-1 2.5-3.5 5-4z"/>
  <path class="cls-2" d="m264.5 531.5c-3-1-5 2-8 2-3.1 0-4-1.5-4-2l3-1 3.5-0.5c2.5-1 5.5 0.5 5.5 1.5z"/>
  <path class="cls-1" d="m10 526.5c-1 0-1.5 4-0.5 5l1.5 1c3-2.5 1-5-0.5-3 0-0.5-1-1.5-0.5-3z"/>
  <path class="cls-4" d="m11 528.5 1 1.5v1l-2-1 1-1.5z"/>
  <path class="cls-1" d="m15 530-4 3.5-5-0.5h-1l1 2h1l-0.5 1.5 0.5 1.5 2-0.5 2.5 1.5 0.5-0.5v-1.5c0.5-0.5-0.5-1.5 0-2 0.5 0 1.5 2 3.5 2 2 0.3 2.5-1.5 4.5-1-1-1.5-2.5 0-3-1.5 1.7-2.5-2-4-5-1.5l3.5-2.5-0.5-0.5z"/>
  <path class="cls-3" d="m5 533c2 2 6 1 7 0.7 0.5-0.2-3 1.3-3.5 3.8"/>
  <path class="cls-3" d="m7 538c1.5-1.5 4-4 5-4.5-2.5 1.5-1 4.5-0.5 5"/>
  <path class="cls-3" d="m12 534c2.5 0.5 6-2.5 4.5 2-1-0.5-2.5-2-3.5-1"/>
  <path class="cls-1" d="m299 526.5c-3.5 0.5-1.5 4-1 5l2-1-0.5-2.5-0.5-1.5z"/>
  <path class="cls-1" d="m293.5 530 3.5 2.5c-4.5-1.5-7.2 0.5-5.5 2.5-1 1-2 0-2.5 1 2.1 0.7 3 0.5 5.5 0l2-1.5c0 1.5-0.5 2 1 4l1.5-1 3 1 0.5-1-0.5-2 1-1 0.5-1.5-1-0.5-3.5-0.5-2-2.5"/>
  <path class="cls-3" d="m290 534.5c1.1 0.5 2.5 0.5 3.5 0l3.5-1c-1.5 1-3.5 4-1 5"/>
  <path class="cls-3" d="m298 533c2 0.5 3 3 4.5 4.5"/>
  <path class="cls-3" d="m293.5 532.5c1 0 2 0.5 3.5 1l-1.5 0.5"/>
  <path class="cls-3" d="m298 531.5 1-0.5 4 2"/>
  <path class="cls-3" d="m298 529c0 0.5 0.5 0.5 0 1.5-0.5 0.5-0.5 1-1 1"/>
  <path class="cls-1" d="m297.5 528.5 1.5 1.5-1 1c0-1-1-1.5-0.5-2.5z"/>
</svg>